<svg xmlns="http://www.w3.org/2000/svg" xmlns:xlink="http://www.w3.org/1999/xlink" width="262" zoomAndPan="magnify" viewBox="0 0 196.5 205.499992" height="274" preserveAspectRatio="xMidYMid meet" version="1.0"><defs><clipPath id="3bd51adb47"><path d="M 42 42.542969 L 144 42.542969 L 144 155 L 42 155 Z M 42 42.542969 " clip-rule="nonzero"/></clipPath><clipPath id="40f5780ced"><path d="M 55 42.542969 L 144.742188 42.542969 L 144.742188 155 L 55 155 Z M 55 42.542969 " clip-rule="nonzero"/></clipPath></defs><g clip-path="url(#3bd51adb47)"><path fill="#dfad7f" d="M 141.300781 132.859375 C 140.929688 132.769531 140.269531 132.652344 139.375 132.527344 L 138.9375 132.464844 C 135.207031 131.960938 127.769531 131.25 119.078125 130.910156 L 118.492188 130.886719 L 118.785156 130.382812 C 119.148438 129.757812 119.46875 129.175781 119.769531 128.605469 C 120.558594 127.097656 121.152344 125.828125 121.621094 124.632812 C 121.023438 125.90625 120.382812 127.246094 119.671875 128.535156 C 119.460938 128.914062 119.246094 129.292969 119.03125 129.664062 L 118.371094 129.460938 L 123.976562 55.410156 L 124.683594 55.4375 L 124.230469 115.65625 C 124.28125 115.722656 124.765625 116.367188 124.765625 116.367188 C 126.609375 118.785156 133.074219 127.015625 139.109375 131.765625 C 139.402344 128.441406 141.308594 103.550781 135.585938 80.617188 C 132.792969 69.402344 126.019531 50.121094 124.691406 46.367188 L 124.664062 46.300781 L 124.859375 43.703125 C 124.875 43.511719 124.816406 43.332031 124.691406 43.1875 C 124.566406 43.042969 124.398438 42.960938 124.210938 42.945312 L 124.160156 42.945312 C 123.78125 42.945312 123.476562 43.222656 123.449219 43.597656 L 123.253906 46.175781 L 67.328125 104.058594 L 122.003906 47.472656 L 122.582031 47.855469 L 89 123.917969 L 89 125.9375 L 95.824219 124.160156 L 117.78125 118.453125 L 116.84375 130.835938 L 116.507812 130.824219 C 114.144531 130.753906 111.804688 130.722656 109.5625 130.722656 C 108.183594 130.722656 106.8125 130.734375 105.488281 130.761719 L 105.375 130.765625 L 96.058594 124.324219 L 105.1875 130.765625 L 104.125 130.792969 C 99.882812 130.90625 95.96875 131.160156 92.492188 131.546875 C 92.011719 131.601562 91.542969 131.660156 91.074219 131.71875 L 90.855469 131.75 C 90.914062 131.691406 90.960938 131.632812 90.988281 131.574219 C 91.023438 131.507812 91.03125 131.4375 91.03125 131.371094 C 91.027344 131.3125 91.015625 131.257812 90.988281 131.203125 C 90.980469 131.183594 90.972656 131.164062 90.957031 131.144531 C 90.949219 131.125 90.9375 131.109375 90.921875 131.09375 C 90.890625 131.050781 90.855469 131.011719 90.808594 130.976562 C 90.34375 130.601562 89.21875 130.28125 88.027344 129.9375 C 87.066406 129.664062 86.078125 129.378906 85.484375 129.078125 C 84.546875 128.597656 83.886719 127.394531 83.050781 125.871094 C 82.753906 125.328125 82.445312 124.765625 82.097656 124.183594 C 81.078125 122.484375 78.6875 118.507812 78.257812 117.652344 C 77.875 116.890625 76.53125 116.246094 75.550781 115.773438 C 75.421875 115.714844 75.304688 115.65625 75.195312 115.601562 C 75.105469 115.558594 75.007812 115.515625 74.910156 115.472656 C 74.890625 115.464844 74.871094 115.457031 74.851562 115.449219 C 74.753906 115.40625 74.652344 115.363281 74.546875 115.324219 C 74.527344 115.316406 74.503906 115.308594 74.484375 115.300781 C 74.382812 115.261719 74.28125 115.222656 74.179688 115.1875 C 74.167969 115.179688 74.160156 115.179688 74.152344 115.175781 C 74.042969 115.132812 73.933594 115.097656 73.824219 115.058594 C 73.796875 115.050781 73.777344 115.042969 73.75 115.035156 C 73.648438 115 73.542969 114.964844 73.449219 114.933594 C 73.425781 114.929688 73.40625 114.921875 73.386719 114.914062 C 73.292969 114.886719 73.207031 114.855469 73.125 114.832031 C 73.113281 114.828125 73.101562 114.824219 73.089844 114.824219 C 73 114.792969 72.914062 114.769531 72.835938 114.746094 C 72.824219 114.738281 72.8125 114.738281 72.800781 114.734375 C 72.726562 114.710938 72.65625 114.691406 72.601562 114.675781 C 72.5625 114.753906 72.511719 114.839844 72.453125 114.941406 C 72.445312 114.957031 72.433594 114.972656 72.425781 114.988281 L 72.082031 114.886719 C 72.082031 114.886719 72.328125 114.445312 72.34375 114.417969 L 62.695312 109.890625 L 62.636719 109.867188 L 62.632812 109.863281 L 61.992188 109.589844 L 65.9375 105.507812 C 65.957031 105.503906 65.972656 105.503906 65.992188 105.5 L 66.066406 105.492188 C 66.214844 105.476562 66.371094 105.457031 66.515625 105.414062 C 66.566406 105.398438 66.613281 105.378906 66.660156 105.351562 C 66.671875 105.347656 66.683594 105.339844 66.695312 105.335938 C 66.730469 105.316406 66.761719 105.289062 66.792969 105.265625 C 66.808594 105.253906 66.820312 105.242188 66.832031 105.230469 C 66.863281 105.199219 66.890625 105.167969 66.914062 105.132812 C 66.925781 105.117188 66.9375 105.101562 66.945312 105.085938 C 66.976562 105.03125 67.007812 104.972656 67.027344 104.898438 C 67.03125 104.890625 67.03125 104.886719 67.035156 104.878906 C 67.085938 104.691406 67.089844 104.5 67.082031 104.3125 C 67.082031 104.28125 67.082031 104.242188 67.078125 104.210938 L 67.074219 104.082031 C 67.074219 104.054688 67.070312 104.019531 67.078125 104 C 67.082031 103.988281 67.097656 103.964844 67.128906 103.917969 C 67.132812 103.910156 67.132812 103.902344 67.136719 103.898438 C 67.183594 103.824219 67.214844 103.738281 67.230469 103.65625 C 67.246094 103.59375 67.25 103.527344 67.25 103.464844 C 67.25 103.433594 67.246094 103.402344 67.242188 103.367188 C 67.238281 103.324219 67.230469 103.277344 67.21875 103.234375 C 67.210938 103.207031 67.203125 103.183594 67.195312 103.15625 C 67.171875 103.085938 67.140625 103.019531 67.097656 102.960938 C 67.21875 102.828125 67.277344 102.636719 67.242188 102.457031 C 67.113281 101.855469 66.445312 101.972656 66.003906 102.050781 C 65.894531 102.074219 65.792969 102.089844 65.710938 102.097656 C 65.574219 101.945312 65.378906 101.847656 65.160156 101.820312 C 64.894531 101.785156 64.625 101.851562 64.425781 102.003906 C 64.332031 102.074219 64.234375 102.148438 64.140625 102.222656 C 64.109375 102.246094 64.078125 102.273438 64.050781 102.296875 C 63.984375 102.347656 63.925781 102.394531 63.863281 102.441406 C 63.832031 102.46875 63.796875 102.496094 63.761719 102.523438 C 63.710938 102.566406 63.652344 102.609375 63.601562 102.652344 C 63.570312 102.675781 63.539062 102.703125 63.507812 102.730469 C 63.453125 102.773438 63.40625 102.8125 63.359375 102.851562 C 63.332031 102.871094 63.304688 102.894531 63.28125 102.910156 C 63.230469 102.949219 63.1875 102.988281 63.144531 103.023438 C 63.125 103.039062 63.105469 103.054688 63.089844 103.066406 C 63.046875 103.101562 63.007812 103.136719 62.972656 103.167969 C 62.960938 103.171875 62.949219 103.183594 62.941406 103.191406 C 62.910156 103.21875 62.886719 103.234375 62.867188 103.253906 C 62.859375 103.257812 62.851562 103.265625 62.84375 103.269531 C 62.84375 103.269531 62.84375 103.269531 62.839844 103.269531 C 62.828125 103.269531 62.820312 103.269531 62.808594 103.269531 C 62.792969 103.269531 62.777344 103.269531 62.757812 103.269531 C 62.75 103.269531 62.738281 103.269531 62.722656 103.269531 C 62.699219 103.269531 62.679688 103.269531 62.652344 103.269531 C 62.640625 103.269531 62.632812 103.269531 62.621094 103.269531 C 62.589844 103.269531 62.550781 103.269531 62.515625 103.269531 C 62.507812 103.269531 62.5 103.269531 62.488281 103.269531 C 62.296875 103.265625 62.054688 103.265625 61.773438 103.253906 C 61.757812 103.253906 61.742188 103.25 61.730469 103.25 C 61.675781 103.25 61.621094 103.246094 61.566406 103.246094 C 61.546875 103.246094 61.527344 103.242188 61.507812 103.242188 C 61.453125 103.238281 61.398438 103.238281 61.347656 103.234375 C 61.324219 103.230469 61.304688 103.230469 61.28125 103.230469 C 61.230469 103.226562 61.179688 103.222656 61.128906 103.21875 C 61.101562 103.21875 61.078125 103.214844 61.050781 103.214844 C 61 103.210938 60.949219 103.207031 60.902344 103.203125 C 60.875 103.203125 60.847656 103.199219 60.816406 103.199219 C 60.769531 103.191406 60.71875 103.1875 60.667969 103.183594 C 60.640625 103.183594 60.613281 103.179688 60.585938 103.175781 C 60.535156 103.171875 60.480469 103.167969 60.429688 103.160156 C 60.40625 103.15625 60.382812 103.15625 60.359375 103.152344 C 60.285156 103.144531 60.210938 103.132812 60.136719 103.125 C 59.917969 103.09375 59.664062 103.050781 59.386719 103 C 59.25 102.976562 59.105469 102.949219 58.953125 102.925781 C 58.832031 102.90625 58.699219 102.886719 58.570312 102.863281 C 58.546875 102.859375 58.523438 102.855469 58.496094 102.851562 C 57.386719 100.988281 56.382812 99.695312 55.515625 99.023438 C 54.789062 98.457031 54.445312 98.203125 54.289062 98.089844 L 54.214844 98.164062 L 53.984375 98.039062 C 53.933594 98.015625 53.878906 97.984375 53.824219 97.957031 C 53.839844 97.945312 53.863281 97.933594 53.878906 97.925781 C 54.035156 97.835938 54.125 97.753906 54.148438 97.730469 C 54.035156 97.671875 53.898438 97.597656 53.734375 97.503906 C 53.722656 97.496094 53.707031 97.488281 53.691406 97.480469 C 53.628906 97.445312 53.558594 97.402344 53.488281 97.363281 C 53.460938 97.347656 53.4375 97.335938 53.410156 97.320312 C 53.335938 97.277344 53.257812 97.230469 53.175781 97.183594 C 53.152344 97.171875 53.128906 97.15625 53.105469 97.140625 C 53 97.082031 52.890625 97.015625 52.773438 96.945312 C 52.746094 96.929688 52.722656 96.914062 52.699219 96.898438 C 52.601562 96.84375 52.503906 96.78125 52.402344 96.71875 C 52.359375 96.691406 52.3125 96.667969 52.269531 96.640625 C 52.171875 96.582031 52.074219 96.519531 51.972656 96.457031 C 51.929688 96.429688 51.882812 96.402344 51.835938 96.371094 C 51.6875 96.28125 51.535156 96.183594 51.375 96.082031 C 51.273438 96.019531 51.175781 95.953125 51.082031 95.878906 C 51.054688 95.855469 51.027344 95.835938 51 95.8125 C 50.941406 95.761719 50.878906 95.710938 50.824219 95.660156 C 50.796875 95.636719 50.769531 95.609375 50.742188 95.582031 C 50.683594 95.53125 50.632812 95.476562 50.582031 95.421875 C 50.5625 95.398438 50.539062 95.378906 50.519531 95.359375 C 50.453125 95.28125 50.386719 95.207031 50.328125 95.132812 C 50.296875 95.125 50.261719 95.117188 50.234375 95.109375 C 50.1875 95.09375 50.144531 95.078125 50.113281 95.085938 C 50.09375 95.085938 50.082031 95.089844 50.042969 95.109375 C 50.019531 95.121094 49.992188 95.132812 49.964844 95.140625 C 49.957031 95.144531 49.953125 95.148438 49.941406 95.152344 C 49.929688 95.15625 49.921875 95.152344 49.910156 95.15625 L 49.511719 94.613281 L 50.429688 94.789062 C 50.445312 94.78125 50.46875 94.746094 50.484375 94.714844 C 50.519531 94.65625 50.570312 94.574219 50.65625 94.511719 C 50.703125 94.476562 50.746094 94.449219 50.789062 94.421875 C 50.886719 94.359375 50.964844 94.308594 51.035156 94.222656 C 51.046875 94.210938 51.058594 94.191406 51.0625 94.160156 C 51.0625 94.132812 51.058594 94.105469 51.058594 94.074219 C 51.050781 93.9375 51.046875 93.789062 51.109375 93.65625 C 51.195312 93.476562 51.210938 93.269531 51.164062 93.0625 C 51.148438 93.007812 51.132812 92.941406 51.140625 92.859375 C 51.148438 92.785156 51.171875 92.734375 51.207031 92.65625 C 51.277344 92.492188 51.269531 92.292969 51.265625 92.097656 C 51.265625 92.078125 51.265625 92.03125 51.265625 91.964844 C 51.296875 91.855469 51.3125 91.738281 51.324219 91.628906 C 51.328125 91.566406 51.367188 91.519531 51.421875 91.5 C 51.414062 91.421875 51.40625 91.347656 51.394531 91.273438 C 51.390625 91.246094 51.386719 91.214844 51.382812 91.183594 C 51.371094 91.125 51.359375 91.0625 51.347656 91.003906 C 51.335938 90.957031 51.324219 90.90625 51.3125 90.855469 C 51.300781 90.816406 51.289062 90.773438 51.277344 90.730469 C 51.25 90.640625 51.214844 90.550781 51.179688 90.46875 C 51.085938 90.253906 51 90.097656 50.921875 89.964844 C 50.761719 89.679688 50.652344 89.488281 50.617188 88.941406 C 50.609375 88.835938 50.59375 88.734375 50.574219 88.636719 C 50.566406 88.589844 50.554688 88.546875 50.542969 88.503906 C 50.527344 88.453125 50.515625 88.402344 50.5 88.355469 C 50.480469 88.292969 50.457031 88.234375 50.4375 88.175781 C 50.425781 88.152344 50.421875 88.128906 50.410156 88.109375 C 50.378906 88.035156 50.347656 87.964844 50.3125 87.898438 C 50.296875 87.863281 50.277344 87.824219 50.261719 87.789062 C 50.199219 87.808594 50.128906 87.792969 50.089844 87.738281 C 50.074219 87.726562 50.039062 87.71875 49.996094 87.710938 C 50 87.691406 50.007812 87.671875 50.007812 87.652344 L 50.007812 87.632812 L 50.011719 87.605469 C 50.007812 87.558594 49.972656 87.511719 49.945312 87.496094 L 49.714844 87.371094 L 49.769531 87.113281 C 49.785156 87.039062 49.773438 86.960938 49.738281 86.886719 C 49.691406 86.792969 49.609375 86.726562 49.515625 86.710938 C 49.226562 86.667969 49.136719 86.355469 49.105469 86.25 C 49.082031 86.175781 49.054688 86.082031 49.019531 86.058594 C 49.007812 86.050781 48.980469 86.046875 48.9375 86.046875 C 48.90625 86.046875 48.875 86.046875 48.835938 86.050781 C 48.796875 86.050781 48.757812 86.054688 48.722656 86.054688 C 48.648438 86.054688 48.535156 86.046875 48.429688 85.980469 C 48.320312 85.914062 48.261719 85.8125 48.214844 85.734375 C 48.191406 85.691406 48.15625 85.640625 48.109375 85.621094 C 48.0625 85.621094 47.984375 85.652344 47.914062 85.679688 C 47.8125 85.722656 47.695312 85.773438 47.546875 85.777344 C 47.375 85.773438 47.230469 85.703125 47.117188 85.652344 C 47.03125 85.609375 46.953125 85.574219 46.875 85.574219 C 46.757812 85.582031 46.667969 85.644531 46.570312 85.789062 L 46.488281 85.910156 L 46.347656 85.941406 C 46.308594 85.945312 46.269531 85.949219 46.230469 85.949219 C 46.078125 85.949219 45.933594 85.894531 45.800781 85.847656 C 45.757812 85.828125 45.667969 85.792969 45.585938 85.792969 C 45.535156 85.792969 45.515625 85.808594 45.507812 85.8125 C 45.480469 85.835938 45.449219 85.894531 45.421875 85.949219 C 45.359375 86.066406 45.273438 86.230469 45.082031 86.277344 L 45.027344 86.289062 L 44.984375 86.289062 C 44.875 86.289062 44.78125 86.246094 44.707031 86.210938 C 44.667969 86.191406 44.621094 86.171875 44.59375 86.171875 C 44.558594 86.171875 44.503906 86.269531 44.460938 86.339844 C 44.394531 86.457031 44.316406 86.589844 44.175781 86.671875 C 44.078125 86.730469 43.980469 86.75 43.890625 86.761719 C 43.847656 86.769531 43.804688 86.777344 43.765625 86.789062 C 43.6875 86.820312 43.617188 86.902344 43.574219 87.007812 C 43.566406 87.035156 43.570312 87.082031 43.578125 87.132812 C 43.589844 87.222656 43.601562 87.328125 43.558594 87.449219 C 43.472656 87.679688 43.238281 87.742188 43.070312 87.785156 C 42.992188 87.804688 42.875 87.832031 42.859375 87.871094 C 42.847656 87.894531 42.863281 87.960938 42.878906 88.011719 C 42.902344 88.109375 42.933594 88.226562 42.898438 88.359375 C 42.855469 88.523438 42.734375 88.621094 42.636719 88.703125 C 42.601562 88.730469 42.566406 88.757812 42.535156 88.789062 C 42.445312 88.890625 42.445312 89.074219 42.507812 89.152344 C 42.511719 89.152344 42.539062 89.183594 42.550781 89.195312 C 42.519531 89.164062 42.441406 89.117188 42.332031 89.117188 L 42.199219 89.144531 L 42.554688 89.742188 C 42.539062 89.757812 42.507812 89.777344 42.480469 89.792969 C 42.464844 89.804688 42.445312 89.816406 42.441406 89.820312 C 42.433594 89.828125 42.429688 89.875 42.472656 89.949219 C 42.488281 89.980469 42.507812 90.011719 42.527344 90.039062 C 42.582031 90.121094 42.652344 90.226562 42.675781 90.355469 C 42.707031 90.511719 42.667969 90.65625 42.632812 90.769531 C 42.625 90.804688 42.613281 90.835938 42.609375 90.867188 C 42.589844 90.964844 42.605469 91.035156 42.621094 91.046875 C 42.632812 91.050781 42.660156 91.058594 42.679688 91.066406 C 42.730469 91.078125 42.796875 91.097656 42.859375 91.140625 C 43.019531 91.246094 43.046875 91.417969 43.066406 91.546875 C 43.074219 91.585938 43.078125 91.625 43.09375 91.660156 C 43.105469 91.703125 43.140625 91.746094 43.191406 91.777344 L 43.230469 91.796875 C 43.21875 91.8125 43.210938 91.824219 43.199219 91.839844 C 43.148438 91.917969 43.101562 92.007812 43.066406 92.109375 C 43.058594 92.128906 43.046875 92.144531 43.039062 92.167969 C 42.898438 92.589844 43.03125 92.871094 43.167969 93.035156 C 43.484375 93.414062 44.160156 93.566406 44.796875 93.566406 C 44.914062 93.566406 45.023438 93.554688 45.136719 93.542969 C 45.109375 93.5 45.089844 93.449219 45.09375 93.378906 C 45.101562 93.339844 45.101562 93.296875 45.09375 93.253906 C 45.09375 93.234375 45.085938 93.214844 45.082031 93.195312 L 45.105469 93.191406 L 45.324219 93.1875 L 45.441406 93.359375 C 45.441406 93.363281 45.453125 93.378906 45.5 93.410156 C 45.5625 93.453125 45.683594 93.535156 45.722656 93.6875 L 45.726562 93.699219 L 46.355469 93.867188 L 45.933594 94.195312 L 46.011719 94.332031 C 45.992188 94.335938 45.96875 94.335938 45.949219 94.332031 C 45.902344 94.320312 45.859375 94.285156 45.84375 94.234375 C 45.816406 94.160156 45.6875 94.054688 45.582031 94.027344 C 45.582031 94.027344 45.578125 94.027344 45.578125 94.027344 C 45.5625 94.039062 46.378906 95.707031 46.378906 95.707031 C 46.355469 95.738281 46.328125 95.773438 46.300781 95.820312 C 46.296875 95.820312 46.296875 95.824219 46.292969 95.824219 C 46.265625 95.875 46.234375 95.925781 46.199219 95.988281 C 46.199219 95.992188 46.199219 95.992188 46.195312 95.996094 C 46.160156 96.0625 46.125 96.136719 46.089844 96.21875 C 46.089844 96.21875 46.085938 96.21875 46.085938 96.222656 C 46.050781 96.308594 46.015625 96.402344 45.980469 96.507812 C 46.011719 96.46875 46.035156 96.441406 46.050781 96.433594 C 46.167969 96.367188 46.285156 96.3125 46.402344 96.261719 C 46.425781 96.25 46.449219 96.246094 46.472656 96.234375 C 46.421875 96.339844 46.367188 96.460938 46.316406 96.621094 L 46.300781 96.667969 L 46.273438 96.710938 C 46.210938 96.796875 46.113281 96.996094 46.019531 97.300781 C 45.992188 97.328125 45.964844 97.355469 45.9375 97.386719 C 45.53125 97.882812 45.386719 98.664062 45.691406 99.546875 C 45.710938 99.601562 45.734375 99.65625 45.753906 99.710938 C 45.832031 101.582031 46.625 103.28125 47.398438 104.921875 C 47.675781 105.511719 47.957031 106.117188 48.203125 106.714844 C 48.71875 107.976562 48.824219 109.195312 48.824219 110.644531 C 48.824219 113.609375 49.335938 113.925781 49.332031 113.925781 L 49.378906 113.933594 L 49.421875 113.960938 C 49.613281 114.070312 51.359375 115.035156 53.605469 115.035156 C 54.15625 115.035156 54.703125 114.976562 55.226562 114.859375 C 55.273438 114.851562 55.316406 114.839844 55.359375 114.824219 L 55.707031 114.726562 L 55.828125 115.019531 C 55.898438 115.195312 55.980469 115.359375 56.066406 115.527344 C 56.457031 116.253906 57.214844 117.273438 58.628906 117.984375 C 60.992188 119.167969 66.609375 120.617188 67.75 120.90625 C 67.796875 120.738281 67.871094 120.480469 67.996094 120.1875 L 68.101562 119.9375 L 68.371094 119.976562 C 68.410156 119.980469 68.441406 119.988281 68.476562 119.992188 C 68.46875 120.011719 68.453125 120.039062 68.441406 120.058594 C 68.398438 120.152344 68.359375 120.238281 68.324219 120.324219 C 68.636719 120.367188 68.949219 120.414062 69.253906 120.464844 C 69.253906 120.464844 69.253906 120.464844 69.257812 120.464844 C 69.351562 120.480469 69.445312 120.496094 69.539062 120.511719 C 69.5625 120.515625 69.585938 120.519531 69.609375 120.523438 C 69.679688 120.535156 69.753906 120.546875 69.824219 120.558594 C 69.851562 120.566406 69.878906 120.570312 69.90625 120.574219 C 69.96875 120.585938 70.035156 120.597656 70.097656 120.613281 C 70.128906 120.617188 70.15625 120.625 70.1875 120.628906 C 70.246094 120.640625 70.304688 120.652344 70.359375 120.664062 C 70.390625 120.671875 70.421875 120.675781 70.453125 120.683594 C 70.507812 120.695312 70.558594 120.707031 70.609375 120.71875 C 70.644531 120.722656 70.675781 120.730469 70.707031 120.738281 C 70.753906 120.75 70.800781 120.761719 70.847656 120.769531 C 70.878906 120.777344 70.910156 120.785156 70.941406 120.792969 C 70.984375 120.804688 71.027344 120.816406 71.070312 120.824219 C 71.101562 120.832031 71.128906 120.839844 71.160156 120.847656 C 71.199219 120.859375 71.238281 120.871094 71.277344 120.882812 C 71.300781 120.890625 71.332031 120.898438 71.359375 120.90625 C 71.394531 120.917969 71.429688 120.929688 71.464844 120.941406 C 71.488281 120.949219 71.515625 120.957031 71.539062 120.964844 C 71.574219 120.976562 71.605469 120.988281 71.632812 121 C 71.65625 121.007812 71.679688 121.015625 71.699219 121.023438 C 71.730469 121.035156 71.757812 121.050781 71.785156 121.058594 C 71.800781 121.066406 71.820312 121.074219 71.839844 121.082031 C 71.867188 121.097656 71.890625 121.109375 71.917969 121.121094 C 71.929688 121.128906 71.945312 121.136719 71.957031 121.144531 C 71.988281 121.164062 72.019531 121.183594 72.046875 121.207031 C 72.542969 121.597656 72.617188 121.835938 72.78125 122.371094 C 72.933594 122.863281 73.160156 123.609375 73.882812 124.894531 C 74.816406 126.5625 76.265625 127.394531 77.429688 128.070312 C 78.140625 128.476562 78.75 128.832031 79.09375 129.273438 C 79.539062 129.84375 79.535156 130.464844 79.535156 131.066406 C 79.535156 131.6875 79.535156 132.277344 80.058594 132.679688 C 80.5 133.015625 80.976562 133.128906 81.480469 133.128906 C 81.59375 133.128906 81.703125 133.121094 81.820312 133.113281 C 81.929688 133.105469 82.042969 133.089844 82.15625 133.074219 C 82.15625 133.074219 82.15625 133.074219 82.160156 133.074219 C 82.164062 133.074219 82.171875 133.074219 82.179688 133.070312 L 82.25 133.417969 C 71.40625 136.230469 65.503906 140.722656 64.304688 141.707031 L 69.066406 148.9375 C 79.363281 152.890625 98.933594 154.304688 113.851562 154.304688 C 113.855469 154.304688 113.855469 154.304688 113.859375 154.304688 C 124.144531 154.304688 132.613281 153.613281 134.933594 152.585938 C 140.582031 150.085938 143.570312 138.816406 143.714844 138.257812 C 143.738281 137.929688 144.1875 133.578125 141.300781 132.859375 Z M 50.28125 89.105469 C 50.28125 89.089844 50.28125 89.074219 50.277344 89.058594 C 50.28125 89.070312 50.289062 89.078125 50.289062 89.089844 C 50.289062 89.09375 50.285156 89.097656 50.28125 89.105469 Z M 60.265625 106.09375 C 60.285156 106.089844 60.304688 106.085938 60.324219 106.082031 C 60.429688 106.0625 60.53125 106.042969 60.632812 106.023438 C 60.816406 105.988281 60.992188 105.953125 61.15625 105.921875 C 61.179688 105.917969 61.203125 105.910156 61.226562 105.90625 C 61.722656 105.804688 62.132812 105.714844 62.453125 105.644531 C 62.46875 105.640625 62.476562 105.636719 62.492188 105.632812 C 62.589844 105.609375 62.683594 105.589844 62.765625 105.570312 C 62.765625 105.570312 62.769531 105.570312 62.769531 105.570312 C 62.851562 105.546875 62.925781 105.53125 62.988281 105.515625 C 63 105.511719 63.003906 105.511719 63.015625 105.507812 C 63.0625 105.496094 63.105469 105.484375 63.140625 105.476562 C 63.152344 105.472656 63.164062 105.472656 63.171875 105.46875 C 63.203125 105.460938 63.230469 105.453125 63.25 105.449219 C 63.253906 105.449219 63.253906 105.449219 63.253906 105.449219 C 63.503906 105.472656 63.757812 105.496094 64.011719 105.507812 C 64.269531 105.523438 64.527344 105.53125 64.78125 105.539062 C 64.882812 105.539062 64.988281 105.542969 65.101562 105.542969 C 65.203125 105.542969 65.304688 105.539062 65.410156 105.535156 C 65.578125 105.53125 65.753906 105.519531 65.929688 105.5 L 62.273438 109.289062 L 62.027344 108.9375 C 61.753906 108.550781 61.042969 107.507812 60.324219 106.195312 Z M 69.8125 120.253906 C 69.636719 120.214844 69.460938 120.175781 69.289062 120.136719 C 69.207031 120.117188 69.125 120.09375 69.046875 120.074219 C 70.394531 120.28125 71.167969 120.46875 71.617188 120.621094 C 71.5625 120.609375 71.507812 120.597656 71.453125 120.585938 C 71.261719 120.546875 71.070312 120.507812 70.875 120.46875 C 70.523438 120.402344 70.167969 120.328125 69.8125 120.253906 Z M 69.8125 120.253906 " fill-opacity="1" fill-rule="nonzero"/></g><g clip-path="url(#40f5780ced)"><path fill="#055169" d="M 62.8125 109.558594 C 62.816406 109.558594 62.816406 109.558594 62.8125 109.558594 C 62.78125 109.542969 62.738281 109.542969 62.699219 109.554688 C 62.664062 109.570312 62.632812 109.597656 62.617188 109.632812 C 62.59375 109.679688 62.574219 109.722656 62.550781 109.769531 C 62.515625 109.847656 62.476562 109.925781 62.441406 110 C 62.402344 110.082031 62.363281 110.164062 62.324219 110.242188 C 62.273438 110.34375 62.21875 110.4375 62.164062 110.53125 C 62.121094 110.613281 62.078125 110.691406 62.035156 110.765625 C 61.980469 110.859375 61.921875 110.953125 61.863281 111.042969 C 61.816406 111.117188 61.773438 111.195312 61.722656 111.265625 C 61.664062 111.359375 61.601562 111.445312 61.539062 111.535156 C 61.492188 111.605469 61.441406 111.675781 61.394531 111.742188 C 61.328125 111.832031 61.261719 111.914062 61.191406 112.003906 C 61.140625 112.066406 61.09375 112.132812 61.039062 112.199219 C 60.96875 112.285156 60.894531 112.367188 60.820312 112.449219 C 60.769531 112.507812 60.71875 112.566406 60.667969 112.625 C 60.585938 112.714844 60.503906 112.792969 60.421875 112.878906 C 60.371094 112.925781 60.324219 112.980469 60.273438 113.03125 C 60.175781 113.125 60.074219 113.214844 59.972656 113.304688 C 59.933594 113.339844 59.898438 113.375 59.855469 113.410156 C 59.714844 113.53125 59.570312 113.648438 59.421875 113.761719 C 59.402344 113.777344 59.382812 113.792969 59.363281 113.804688 C 59.234375 113.902344 59.105469 113.996094 58.96875 114.085938 C 58.914062 114.125 58.859375 114.15625 58.804688 114.191406 C 58.703125 114.257812 58.601562 114.324219 58.5 114.386719 C 58.433594 114.425781 58.367188 114.460938 58.300781 114.496094 C 58.203125 114.550781 58.109375 114.609375 58.011719 114.660156 C 57.9375 114.695312 57.863281 114.730469 57.792969 114.765625 C 57.699219 114.8125 57.605469 114.859375 57.507812 114.902344 C 57.429688 114.9375 57.351562 114.96875 57.273438 115 C 57.179688 115.039062 57.082031 115.082031 56.984375 115.117188 C 56.902344 115.148438 56.820312 115.175781 56.738281 115.203125 C 56.644531 115.238281 56.546875 115.269531 56.449219 115.300781 C 56.363281 115.328125 56.277344 115.351562 56.191406 115.375 C 56.113281 115.398438 56.03125 115.421875 55.953125 115.441406 C 55.914062 115.449219 55.878906 115.464844 55.839844 115.472656 C 55.796875 115.484375 55.757812 115.515625 55.738281 115.554688 C 55.722656 115.597656 55.722656 115.644531 55.746094 115.6875 C 55.691406 115.589844 55.648438 115.496094 55.605469 115.410156 C 55.601562 115.398438 55.597656 115.390625 55.589844 115.378906 C 55.554688 115.296875 55.519531 115.21875 55.492188 115.144531 C 55.585938 115.117188 55.683594 115.085938 55.777344 115.054688 C 57.226562 114.523438 58.25 113.171875 59.242188 111.863281 C 60.023438 110.832031 60.769531 109.847656 61.652344 109.382812 C 61.777344 109.316406 61.902344 109.265625 62.03125 109.222656 C 62.132812 109.1875 62.234375 109.160156 62.339844 109.140625 C 62.394531 109.128906 62.433594 109.09375 62.453125 109.046875 C 62.472656 109 62.464844 108.945312 62.433594 108.902344 C 62.433594 108.902344 62.390625 108.839844 62.3125 108.734375 L 65.40625 105.535156 C 65.59375 105.53125 65.789062 105.519531 65.980469 105.5 L 66.054688 105.488281 C 66.207031 105.472656 66.363281 105.457031 66.507812 105.410156 L 62.679688 109.375 L 62.589844 109.464844 Z M 67.375 104.519531 L 67.078125 104.3125 C 67.085938 104.496094 67.082031 104.6875 67.027344 104.875 Z M 88.867188 126.332031 L 95.761719 124.539062 L 95.382812 124.273438 L 93.253906 122.773438 L 92.882812 122.511719 L 89.125 123.589844 L 88.773438 123.691406 C 88.738281 123.703125 88.707031 123.722656 88.6875 123.75 C 88.675781 123.761719 88.675781 123.777344 88.667969 123.789062 C 88.667969 123.792969 88.667969 123.792969 88.667969 123.796875 C 88.660156 123.820312 88.644531 123.835938 88.644531 123.863281 L 88.644531 126.164062 C 88.644531 126.21875 88.667969 126.269531 88.714844 126.304688 C 88.746094 126.328125 88.785156 126.339844 88.824219 126.339844 C 88.835938 126.339844 88.851562 126.339844 88.867188 126.332031 Z M 144.050781 138.316406 C 144.050781 138.316406 141.054688 150.253906 135.0625 152.902344 C 129.070312 155.554688 85.796875 155.8125 68.820312 149.21875 L 63.828125 141.632812 C 63.828125 141.632812 63.835938 141.625 63.847656 141.613281 C 63.851562 141.609375 63.863281 141.601562 63.871094 141.59375 C 63.882812 141.585938 63.894531 141.574219 63.910156 141.5625 C 63.925781 141.546875 63.945312 141.53125 63.964844 141.515625 C 63.976562 141.503906 63.992188 141.488281 64.007812 141.476562 C 64.035156 141.453125 64.066406 141.429688 64.101562 141.398438 C 64.109375 141.394531 64.117188 141.386719 64.125 141.382812 C 64.257812 141.273438 64.4375 141.128906 64.667969 140.953125 C 64.675781 140.949219 64.679688 140.945312 64.6875 140.9375 C 64.765625 140.878906 64.851562 140.816406 64.9375 140.75 C 64.941406 140.746094 64.945312 140.742188 64.953125 140.742188 C 67.199219 139.085938 72.847656 135.480469 82.148438 133.066406 C 82.683594 132.925781 83.230469 132.789062 83.792969 132.660156 C 84.183594 132.628906 84.589844 132.542969 85.007812 132.453125 C 85.777344 132.285156 86.578125 132.113281 87.363281 132.289062 C 88.882812 132.636719 90.695312 132.175781 90.992188 131.566406 C 91.027344 131.496094 91.035156 131.429688 91.03125 131.359375 C 91.503906 131.300781 91.972656 131.238281 92.457031 131.1875 C 92.871094 131.140625 93.289062 131.097656 93.707031 131.054688 C 93.808594 131.046875 93.90625 131.035156 94.003906 131.027344 C 94.425781 130.988281 94.847656 130.945312 95.273438 130.910156 C 95.289062 130.90625 95.308594 130.90625 95.324219 130.90625 C 95.742188 130.871094 96.160156 130.835938 96.585938 130.804688 C 96.671875 130.796875 96.757812 130.792969 96.839844 130.785156 C 97.28125 130.753906 97.726562 130.722656 98.175781 130.691406 C 98.1875 130.691406 98.199219 130.691406 98.210938 130.691406 C 98.65625 130.660156 99.101562 130.636719 99.550781 130.613281 C 99.609375 130.609375 99.667969 130.605469 99.726562 130.601562 C 100.195312 130.578125 100.664062 130.554688 101.132812 130.535156 C 101.136719 130.535156 101.136719 130.535156 101.140625 130.535156 C 101.613281 130.515625 102.085938 130.492188 102.566406 130.476562 C 102.597656 130.476562 102.628906 130.476562 102.664062 130.472656 C 103.148438 130.457031 103.632812 130.441406 104.121094 130.429688 C 104.574219 130.417969 105.027344 130.40625 105.484375 130.398438 C 106.414062 130.378906 107.34375 130.367188 108.269531 130.359375 C 108.273438 130.359375 108.277344 130.359375 108.285156 130.359375 C 109.207031 130.355469 110.125 130.355469 111.042969 130.363281 C 111.054688 130.363281 111.0625 130.363281 111.070312 130.363281 C 111.988281 130.371094 112.898438 130.382812 113.804688 130.398438 C 113.808594 130.398438 113.8125 130.398438 113.816406 130.398438 C 114.726562 130.414062 115.628906 130.433594 116.523438 130.460938 L 116.894531 125.566406 L 117.398438 118.90625 L 113.425781 119.941406 L 96.664062 124.296875 L 96.28125 124.035156 L 94.097656 122.523438 L 93.71875 122.261719 L 118.578125 115.132812 L 118.6875 115.101562 C 118.742188 115.085938 118.804688 115.097656 118.847656 115.136719 C 118.882812 115.164062 118.902344 115.207031 118.90625 115.253906 L 123.644531 45.378906 C 123.648438 45.300781 123.597656 45.226562 123.515625 45.207031 C 123.4375 45.1875 123.355469 45.226562 123.320312 45.300781 L 122.894531 46.269531 L 122.257812 47.707031 L 67.636719 104.246094 L 67.132812 103.898438 C 67.175781 103.820312 67.207031 103.738281 67.226562 103.652344 L 122.910156 46.019531 L 123.097656 43.566406 C 123.144531 42.984375 123.644531 42.554688 124.238281 42.59375 C 124.824219 42.636719 125.261719 43.144531 125.214844 43.726562 L 125.023438 46.25 C 124.824219 45.679688 124.707031 45.351562 124.695312 45.328125 C 124.671875 45.257812 124.601562 45.214844 124.53125 45.230469 C 124.457031 45.242188 124.40625 45.304688 124.402344 45.375 L 124.328125 55.4375 L 118.722656 129.488281 C 118.542969 129.789062 118.367188 130.089844 118.183594 130.390625 C 118.15625 130.433594 118.128906 130.476562 118.101562 130.523438 C 118.433594 130.535156 118.761719 130.546875 119.09375 130.558594 C 119.351562 130.566406 119.609375 130.578125 119.863281 130.589844 C 119.882812 130.589844 119.902344 130.59375 119.921875 130.59375 C 120.171875 130.601562 120.425781 130.613281 120.675781 130.625 C 120.691406 130.625 120.703125 130.628906 120.71875 130.628906 C 122.554688 130.710938 124.328125 130.808594 126.015625 130.917969 C 126.023438 130.917969 126.03125 130.917969 126.039062 130.917969 C 126.277344 130.933594 126.511719 130.949219 126.746094 130.964844 C 126.75 130.964844 126.757812 130.964844 126.761719 130.964844 C 128.1875 131.0625 129.550781 131.164062 130.828125 131.269531 C 130.832031 131.269531 130.832031 131.269531 130.839844 131.269531 C 131.046875 131.285156 131.246094 131.300781 131.449219 131.320312 C 131.460938 131.320312 131.472656 131.324219 131.484375 131.324219 C 131.675781 131.339844 131.867188 131.355469 132.058594 131.371094 C 132.082031 131.375 132.105469 131.375 132.128906 131.378906 C 132.320312 131.394531 132.503906 131.414062 132.6875 131.429688 C 132.691406 131.429688 132.699219 131.429688 132.703125 131.429688 C 133.683594 131.519531 134.597656 131.609375 135.445312 131.695312 C 135.460938 131.699219 135.472656 131.699219 135.488281 131.703125 C 135.644531 131.71875 135.792969 131.734375 135.941406 131.75 C 135.96875 131.75 135.992188 131.753906 136.015625 131.757812 C 136.164062 131.773438 136.308594 131.789062 136.445312 131.804688 C 136.464844 131.808594 136.484375 131.808594 136.503906 131.8125 C 136.648438 131.828125 136.792969 131.84375 136.933594 131.859375 C 136.941406 131.859375 136.949219 131.863281 136.957031 131.863281 C 137.714844 131.949219 138.398438 132.035156 138.992188 132.117188 C 139.144531 132.136719 139.289062 132.15625 139.433594 132.175781 C 139.539062 132.191406 139.640625 132.207031 139.738281 132.222656 C 139.75 132.222656 139.761719 132.226562 139.773438 132.226562 C 139.863281 132.238281 139.949219 132.253906 140.035156 132.265625 C 140.054688 132.269531 140.078125 132.273438 140.097656 132.273438 C 140.171875 132.285156 140.246094 132.296875 140.316406 132.308594 C 140.34375 132.3125 140.375 132.316406 140.402344 132.324219 C 140.460938 132.332031 140.519531 132.34375 140.578125 132.351562 C 140.613281 132.359375 140.644531 132.363281 140.675781 132.371094 C 140.726562 132.378906 140.773438 132.386719 140.820312 132.394531 C 140.859375 132.402344 140.894531 132.410156 140.929688 132.417969 C 140.964844 132.421875 141.003906 132.429688 141.039062 132.4375 C 141.082031 132.445312 141.121094 132.453125 141.160156 132.460938 C 141.183594 132.464844 141.207031 132.46875 141.230469 132.476562 C 141.289062 132.488281 141.34375 132.5 141.394531 132.511719 C 144.714844 133.347656 144.050781 138.316406 144.050781 138.316406 Z M 141.34375 135.257812 C 140.523438 138.375 139.46875 141.4375 138.265625 144.425781 C 137.65625 145.9375 136.976562 147.414062 136.265625 148.875 C 135.972656 149.476562 135.664062 150.070312 135.296875 150.628906 C 134.886719 151.246094 134.378906 151.714844 133.875 152.246094 C 133.585938 152.550781 133.964844 153.003906 134.328125 152.804688 C 135.511719 152.136719 136.234375 150.667969 136.785156 149.492188 C 137.472656 148.007812 138.070312 146.484375 138.648438 144.957031 C 139.84375 141.808594 140.789062 138.59375 141.558594 135.316406 C 141.589844 135.179688 141.378906 135.125 141.34375 135.257812 Z M 141.34375 135.257812 " fill-opacity="1" fill-rule="nonzero"/></g><path fill="#021b3b" d="M 50.289062 89.089844 C 50.289062 89.152344 50.21875 89.183594 50.167969 89.199219 C 50.148438 89.207031 50.121094 89.214844 50.101562 89.222656 C 50.097656 89.226562 50.097656 89.226562 50.09375 89.226562 C 50.082031 89.230469 50.074219 89.238281 50.0625 89.238281 C 50.050781 89.242188 50.039062 89.242188 50.03125 89.246094 C 49.957031 89.257812 49.894531 89.28125 49.820312 89.285156 C 49.777344 89.289062 49.734375 89.292969 49.691406 89.296875 C 49.613281 89.308594 49.535156 89.324219 49.460938 89.347656 C 49.421875 89.367188 49.386719 89.386719 49.347656 89.394531 C 49.226562 89.421875 49.105469 89.386719 49.027344 89.292969 C 48.953125 89.207031 48.9375 89.070312 49.003906 88.972656 C 49.097656 88.828125 49.285156 88.769531 49.453125 88.757812 C 49.542969 88.75 49.636719 88.753906 49.726562 88.765625 C 49.804688 88.769531 49.882812 88.773438 49.953125 88.804688 C 50 88.824219 50.050781 88.84375 50.097656 88.867188 C 50.171875 88.90625 50.289062 88.996094 50.289062 89.089844 Z M 50.105469 89.222656 C 50.105469 89.222656 50.101562 89.222656 50.101562 89.226562 C 50.121094 89.214844 50.121094 89.214844 50.105469 89.222656 Z M 135.929688 80.53125 C 135.882812 80.34375 135.835938 80.15625 135.789062 79.96875 C 135.773438 79.90625 135.753906 79.839844 135.738281 79.777344 C 135.707031 79.648438 135.675781 79.519531 135.636719 79.390625 C 135.617188 79.316406 135.601562 79.242188 135.578125 79.164062 C 135.546875 79.042969 135.515625 78.921875 135.484375 78.796875 C 135.460938 78.71875 135.441406 78.636719 135.421875 78.558594 C 135.386719 78.4375 135.355469 78.316406 135.324219 78.195312 C 135.300781 78.109375 135.277344 78.027344 135.253906 77.945312 C 135.222656 77.820312 135.1875 77.695312 135.15625 77.570312 C 135.132812 77.492188 135.113281 77.410156 135.089844 77.332031 C 135.054688 77.203125 135.015625 77.070312 134.980469 76.9375 C 134.957031 76.859375 134.9375 76.78125 134.914062 76.707031 C 134.867188 76.546875 134.824219 76.386719 134.777344 76.230469 C 134.765625 76.179688 134.75 76.128906 134.734375 76.078125 C 134.675781 75.867188 134.613281 75.648438 134.550781 75.433594 C 134.539062 75.390625 134.527344 75.351562 134.519531 75.3125 C 134.46875 75.136719 134.417969 74.960938 134.367188 74.789062 C 134.34375 74.707031 134.320312 74.625 134.296875 74.542969 C 134.257812 74.40625 134.21875 74.269531 134.179688 74.128906 C 134.152344 74.042969 134.125 73.957031 134.101562 73.867188 C 134.0625 73.730469 134.019531 73.59375 133.980469 73.457031 C 133.953125 73.371094 133.929688 73.285156 133.902344 73.199219 C 133.863281 73.058594 133.820312 72.921875 133.78125 72.785156 C 133.753906 72.699219 133.726562 72.609375 133.703125 72.527344 C 133.65625 72.375 133.613281 72.226562 133.566406 72.074219 C 133.546875 72.003906 133.523438 71.929688 133.503906 71.859375 C 133.449219 71.6875 133.398438 71.515625 133.347656 71.34375 C 133.328125 71.289062 133.3125 71.234375 133.296875 71.175781 C 133.226562 70.953125 133.160156 70.734375 133.09375 70.511719 C 133.089844 70.503906 133.089844 70.496094 133.085938 70.488281 C 133.015625 70.253906 132.941406 70.019531 132.871094 69.78125 C 132.859375 69.746094 132.847656 69.707031 132.835938 69.671875 C 132.777344 69.476562 132.714844 69.28125 132.65625 69.085938 C 132.636719 69.023438 132.617188 68.960938 132.597656 68.898438 C 132.546875 68.730469 132.496094 68.5625 132.441406 68.394531 C 132.414062 68.320312 132.394531 68.242188 132.367188 68.167969 C 132.320312 68.011719 132.269531 67.851562 132.21875 67.695312 C 132.195312 67.617188 132.171875 67.542969 132.148438 67.464844 C 132.097656 67.300781 132.042969 67.136719 131.992188 66.972656 C 131.972656 66.90625 131.949219 66.835938 131.929688 66.769531 C 131.875 66.601562 131.824219 66.4375 131.769531 66.269531 C 131.746094 66.195312 131.726562 66.128906 131.703125 66.054688 C 131.644531 65.875 131.585938 65.695312 131.527344 65.515625 C 131.511719 65.464844 131.496094 65.414062 131.480469 65.363281 C 131.332031 64.894531 131.179688 64.425781 131.03125 63.960938 C 131.015625 63.921875 131.003906 63.882812 130.992188 63.84375 C 130.929688 63.648438 130.863281 63.453125 130.800781 63.257812 C 130.785156 63.210938 130.769531 63.160156 130.753906 63.113281 C 130.695312 62.933594 130.636719 62.753906 130.578125 62.578125 C 130.558594 62.511719 130.535156 62.449219 130.515625 62.382812 C 130.460938 62.222656 130.410156 62.058594 130.355469 61.894531 C 130.332031 61.828125 130.3125 61.757812 130.289062 61.6875 C 130.234375 61.519531 130.179688 61.347656 130.121094 61.183594 C 130.105469 61.128906 130.085938 61.074219 130.066406 61.023438 C 130.003906 60.832031 129.945312 60.644531 129.882812 60.460938 C 129.871094 60.421875 129.859375 60.386719 129.847656 60.347656 C 129.621094 59.664062 129.398438 58.988281 129.175781 58.328125 C 129.167969 58.304688 129.160156 58.28125 129.152344 58.257812 C 129.085938 58.066406 129.023438 57.875 128.960938 57.6875 C 128.945312 57.640625 128.933594 57.597656 128.917969 57.550781 C 128.859375 57.378906 128.800781 57.210938 128.746094 57.039062 C 128.730469 56.996094 128.714844 56.953125 128.703125 56.914062 C 128.644531 56.746094 128.589844 56.582031 128.535156 56.414062 C 128.519531 56.363281 128.5 56.3125 128.480469 56.257812 C 128.425781 56.09375 128.371094 55.929688 128.316406 55.765625 C 128.304688 55.730469 128.292969 55.695312 128.277344 55.664062 C 128.21875 55.484375 128.15625 55.304688 128.097656 55.128906 C 128.085938 55.101562 128.078125 55.074219 128.070312 55.046875 C 127.863281 54.445312 127.664062 53.855469 127.472656 53.292969 C 127.457031 53.253906 127.445312 53.21875 127.433594 53.183594 C 127.386719 53.046875 127.339844 52.90625 127.292969 52.769531 C 127.269531 52.703125 127.246094 52.636719 127.222656 52.570312 C 127.179688 52.445312 127.136719 52.324219 127.09375 52.199219 C 127.082031 52.160156 127.070312 52.125 127.058594 52.089844 C 127.011719 51.949219 126.960938 51.8125 126.914062 51.675781 C 126.898438 51.632812 126.882812 51.585938 126.867188 51.542969 C 126.828125 51.421875 126.785156 51.304688 126.746094 51.1875 C 126.730469 51.136719 126.710938 51.082031 126.691406 51.03125 C 126.648438 50.90625 126.605469 50.785156 126.5625 50.664062 C 126.554688 50.628906 126.539062 50.59375 126.527344 50.558594 C 126.417969 50.242188 126.3125 49.941406 126.210938 49.652344 C 126.191406 49.601562 126.175781 49.554688 126.160156 49.503906 C 126.125 49.410156 126.09375 49.316406 126.0625 49.226562 C 126.035156 49.152344 126.011719 49.078125 125.984375 49.003906 C 125.96875 48.953125 125.953125 48.902344 125.933594 48.855469 C 125.910156 48.78125 125.882812 48.710938 125.859375 48.640625 C 125.832031 48.566406 125.808594 48.496094 125.785156 48.421875 C 125.765625 48.375 125.75 48.324219 125.730469 48.277344 C 125.707031 48.207031 125.683594 48.140625 125.660156 48.070312 C 125.636719 48.007812 125.617188 47.945312 125.59375 47.886719 C 125.582031 47.847656 125.566406 47.808594 125.554688 47.769531 C 125.527344 47.699219 125.503906 47.628906 125.480469 47.558594 C 125.46875 47.527344 125.460938 47.496094 125.449219 47.464844 C 125.359375 47.207031 125.273438 46.972656 125.199219 46.757812 C 125.195312 46.742188 125.1875 46.726562 125.179688 46.710938 C 125.152344 46.636719 125.128906 46.5625 125.105469 46.492188 C 125.101562 46.488281 125.101562 46.484375 125.097656 46.480469 C 125.070312 46.40625 125.046875 46.335938 125.023438 46.269531 C 124.824219 45.699219 124.707031 45.375 124.695312 45.347656 C 124.671875 45.277344 124.601562 45.238281 124.53125 45.25 C 124.457031 45.261719 124.40625 45.324219 124.402344 45.394531 L 124.328125 55.457031 L 123.871094 115.742188 C 123.871094 115.773438 123.882812 115.804688 123.902344 115.832031 C 123.910156 115.84375 124.019531 115.992188 124.210938 116.246094 C 124.210938 116.25 124.210938 116.25 124.210938 116.25 C 124.179688 116.367188 124.148438 116.484375 124.117188 116.601562 C 124.046875 116.847656 123.980469 117.09375 123.910156 117.339844 C 123.871094 117.484375 123.824219 117.632812 123.78125 117.777344 C 123.71875 117.996094 123.65625 118.214844 123.589844 118.429688 C 123.546875 118.582031 123.496094 118.734375 123.449219 118.886719 C 123.382812 119.097656 123.316406 119.308594 123.25 119.519531 C 123.199219 119.671875 123.148438 119.828125 123.097656 119.980469 C 123.027344 120.191406 122.957031 120.402344 122.882812 120.609375 C 122.832031 120.761719 122.777344 120.90625 122.726562 121.054688 C 122.644531 121.269531 122.566406 121.484375 122.484375 121.699219 C 122.433594 121.84375 122.378906 121.980469 122.328125 122.121094 C 122.234375 122.355469 122.140625 122.585938 122.042969 122.820312 C 121.996094 122.9375 121.949219 123.050781 121.898438 123.167969 C 121.75 123.515625 121.597656 123.863281 121.4375 124.203125 C 120.777344 125.617188 120.109375 127.023438 119.359375 128.390625 C 119.152344 128.765625 118.9375 129.136719 118.722656 129.507812 C 118.542969 129.8125 118.367188 130.113281 118.183594 130.414062 C 118.15625 130.457031 118.128906 130.5 118.101562 130.546875 C 118.433594 130.554688 118.761719 130.570312 119.09375 130.582031 C 119.261719 130.289062 119.429688 129.992188 119.59375 129.699219 C 119.757812 129.394531 119.921875 129.09375 120.082031 128.789062 C 120.820312 127.382812 121.515625 125.941406 122.078125 124.457031 C 122.207031 124.113281 122.335938 123.765625 122.464844 123.417969 C 122.515625 123.277344 122.566406 123.132812 122.617188 122.992188 C 122.6875 122.789062 122.761719 122.589844 122.832031 122.386719 C 122.894531 122.203125 122.957031 122.019531 123.019531 121.835938 C 123.074219 121.679688 123.125 121.523438 123.175781 121.363281 C 123.246094 121.152344 123.316406 120.945312 123.382812 120.730469 C 123.421875 120.605469 123.457031 120.484375 123.496094 120.359375 C 123.570312 120.125 123.644531 119.886719 123.710938 119.644531 C 123.734375 119.570312 123.753906 119.492188 123.777344 119.414062 C 124.042969 118.484375 124.28125 117.546875 124.484375 116.601562 C 124.484375 116.605469 124.488281 116.609375 124.488281 116.609375 C 124.554688 116.695312 124.625 116.789062 124.699219 116.890625 C 124.722656 116.917969 124.75 116.953125 124.773438 116.984375 C 124.828125 117.058594 124.886719 117.132812 124.949219 117.210938 C 124.980469 117.253906 125.019531 117.300781 125.054688 117.347656 C 125.109375 117.414062 125.164062 117.488281 125.222656 117.5625 C 125.269531 117.621094 125.3125 117.679688 125.363281 117.738281 C 125.410156 117.804688 125.464844 117.871094 125.519531 117.9375 C 125.574219 118.007812 125.628906 118.078125 125.6875 118.152344 C 125.730469 118.203125 125.773438 118.261719 125.816406 118.316406 C 125.964844 118.503906 126.125 118.703125 126.289062 118.910156 C 126.3125 118.941406 126.335938 118.96875 126.359375 118.996094 C 126.445312 119.105469 126.539062 119.214844 126.628906 119.328125 C 126.664062 119.375 126.703125 119.421875 126.742188 119.46875 C 126.835938 119.582031 126.929688 119.703125 127.027344 119.820312 C 127.0625 119.867188 127.101562 119.910156 127.136719 119.957031 C 127.242188 120.082031 127.347656 120.214844 127.457031 120.347656 C 127.476562 120.371094 127.5 120.398438 127.523438 120.425781 C 128.183594 121.222656 128.910156 122.085938 129.691406 122.980469 C 129.691406 122.984375 129.695312 122.988281 129.699219 122.992188 C 132.414062 126.105469 135.757812 129.613281 138.984375 132.132812 C 139.136719 132.152344 139.28125 132.171875 139.421875 132.191406 C 139.421875 132.191406 139.425781 132.1875 139.425781 132.1875 C 139.457031 131.902344 142.066406 105.140625 135.929688 80.53125 Z M 51.621094 91.824219 C 51.621094 91.929688 51.617188 92.046875 51.617188 92.078125 C 51.625 92.300781 51.632812 92.554688 51.53125 92.789062 C 51.503906 92.847656 51.492188 92.875 51.492188 92.890625 C 51.488281 92.910156 51.496094 92.941406 51.503906 92.972656 C 51.578125 93.265625 51.546875 93.554688 51.429688 93.804688 C 51.402344 93.855469 51.40625 93.964844 51.414062 94.054688 C 51.414062 94.089844 51.414062 94.128906 51.414062 94.160156 C 51.414062 94.191406 51.414062 94.242188 51.398438 94.292969 C 51.378906 94.359375 51.339844 94.40625 51.308594 94.441406 C 51.199219 94.574219 51.089844 94.648438 50.980469 94.714844 C 50.941406 94.742188 50.902344 94.765625 50.859375 94.796875 C 50.835938 94.8125 50.8125 94.847656 50.789062 94.890625 C 50.753906 94.949219 50.707031 95.027344 50.621094 95.082031 C 50.589844 95.101562 50.558594 95.117188 50.527344 95.125 C 50.515625 95.125 50.503906 95.128906 50.496094 95.132812 C 50.472656 95.136719 50.453125 95.136719 50.429688 95.136719 C 50.421875 95.136719 50.410156 95.140625 50.398438 95.136719 C 50.375 95.136719 50.351562 95.132812 50.328125 95.128906 C 50.292969 95.121094 50.261719 95.113281 50.230469 95.105469 C 50.1875 95.09375 50.140625 95.078125 50.113281 95.082031 C 50.089844 95.082031 50.078125 95.089844 50.042969 95.105469 C 50.015625 95.117188 49.988281 95.128906 49.964844 95.140625 C 49.957031 95.140625 49.949219 95.148438 49.941406 95.148438 C 49.875 95.167969 49.808594 95.164062 49.753906 95.15625 C 49.738281 95.152344 49.71875 95.152344 49.703125 95.152344 C 49.703125 95.15625 49.699219 95.164062 49.695312 95.171875 C 49.683594 95.195312 49.667969 95.214844 49.652344 95.238281 C 49.582031 95.328125 49.464844 95.382812 49.347656 95.382812 C 49.324219 95.382812 49.296875 95.378906 49.273438 95.375 C 49.207031 95.359375 49.152344 95.332031 49.105469 95.304688 C 49.074219 95.285156 49.042969 95.269531 49.023438 95.265625 C 49.027344 95.269531 49.015625 95.277344 49.007812 95.289062 C 48.949219 95.332031 48.84375 95.414062 48.6875 95.359375 C 48.628906 95.335938 48.582031 95.300781 48.550781 95.269531 C 48.535156 95.257812 48.515625 95.242188 48.507812 95.238281 C 48.507812 95.242188 48.488281 95.246094 48.476562 95.246094 C 48.269531 95.289062 48.125 95.246094 47.984375 95.207031 C 47.90625 95.183594 47.835938 95.195312 47.761719 95.207031 L 47.707031 95.210938 C 47.515625 95.242188 47.367188 95.207031 47.273438 95.105469 C 47.246094 95.078125 47.230469 95.042969 47.230469 95.003906 C 47.21875 94.941406 47.066406 94.796875 46.988281 94.777344 C 46.941406 94.765625 46.882812 94.773438 46.816406 94.78125 C 46.714844 94.796875 46.59375 94.8125 46.476562 94.757812 C 46.339844 94.699219 46.261719 94.585938 46.199219 94.488281 L 46.164062 94.4375 C 46.113281 94.363281 46.050781 94.320312 46.023438 94.332031 C 45.996094 94.335938 45.972656 94.335938 45.949219 94.332031 C 45.898438 94.320312 45.855469 94.285156 45.839844 94.234375 C 45.816406 94.15625 45.683594 94.050781 45.578125 94.023438 C 45.578125 94.023438 45.574219 94.023438 45.574219 94.023438 C 45.550781 94.015625 45.527344 94.011719 45.5 93.996094 C 45.472656 93.984375 45.445312 93.960938 45.417969 93.929688 C 45.378906 93.871094 45.378906 93.808594 45.378906 93.773438 C 45.371094 93.75 45.324219 93.71875 45.296875 93.699219 C 45.246094 93.664062 45.175781 93.613281 45.132812 93.539062 C 45.105469 93.496094 45.085938 93.445312 45.09375 93.375 C 45.097656 93.332031 45.097656 93.292969 45.09375 93.25 C 45.089844 93.195312 45.074219 93.140625 45.058594 93.082031 C 45.050781 93.054688 45.042969 93.027344 45.03125 93.003906 C 44.964844 92.839844 44.855469 92.679688 44.746094 92.515625 C 44.660156 92.382812 44.566406 92.25 44.492188 92.109375 C 44.4375 92 44.394531 91.886719 44.34375 91.777344 C 44.289062 91.660156 44.230469 91.546875 44.183594 91.425781 C 44.015625 91.394531 43.820312 91.390625 43.628906 91.464844 C 43.449219 91.535156 43.308594 91.664062 43.195312 91.839844 C 43.144531 91.917969 43.097656 92.007812 43.0625 92.109375 C 43.054688 92.105469 43.050781 92.101562 43.046875 92.101562 C 42.90625 92.027344 42.796875 91.910156 42.753906 91.769531 C 42.738281 91.71875 42.726562 91.660156 42.714844 91.605469 C 42.703125 91.527344 42.691406 91.453125 42.65625 91.429688 C 42.640625 91.421875 42.613281 91.414062 42.582031 91.402344 C 42.539062 91.394531 42.484375 91.378906 42.433594 91.347656 C 42.238281 91.230469 42.214844 90.984375 42.257812 90.792969 C 42.265625 90.753906 42.277344 90.714844 42.285156 90.675781 C 42.3125 90.582031 42.335938 90.492188 42.324219 90.421875 C 42.3125 90.363281 42.269531 90.296875 42.226562 90.230469 C 42.199219 90.191406 42.179688 90.15625 42.15625 90.117188 C 42.042969 89.914062 42.054688 89.699219 42.183594 89.574219 C 42.21875 89.539062 42.253906 89.515625 42.285156 89.496094 C 42.300781 89.484375 42.320312 89.472656 42.328125 89.464844 C 42.316406 89.46875 42.292969 89.445312 42.28125 89.429688 C 42.28125 89.429688 42.253906 89.402344 42.253906 89.398438 C 42.050781 89.164062 42.054688 88.78125 42.265625 88.546875 C 42.308594 88.503906 42.355469 88.464844 42.402344 88.425781 C 42.472656 88.371094 42.535156 88.320312 42.546875 88.265625 C 42.558594 88.222656 42.542969 88.160156 42.527344 88.09375 C 42.503906 87.992188 42.46875 87.859375 42.523438 87.730469 C 42.609375 87.535156 42.8125 87.480469 42.976562 87.4375 C 43.109375 87.40625 43.199219 87.378906 43.21875 87.324219 C 43.234375 87.285156 43.226562 87.238281 43.21875 87.175781 C 43.210938 87.09375 43.199219 86.992188 43.238281 86.882812 C 43.316406 86.675781 43.460938 86.523438 43.632812 86.457031 C 43.695312 86.433594 43.761719 86.425781 43.824219 86.414062 C 43.890625 86.402344 43.949219 86.390625 43.988281 86.367188 C 44.050781 86.332031 44.101562 86.246094 44.152344 86.160156 C 44.238281 86.011719 44.347656 85.828125 44.570312 85.816406 C 44.679688 85.8125 44.773438 85.851562 44.851562 85.886719 C 44.90625 85.914062 44.960938 85.9375 44.992188 85.929688 C 45.027344 85.921875 45.058594 85.867188 45.105469 85.78125 C 45.148438 85.699219 45.199219 85.605469 45.285156 85.535156 C 45.515625 85.355469 45.824219 85.476562 45.925781 85.515625 C 46.054688 85.5625 46.179688 85.609375 46.273438 85.59375 C 46.378906 85.429688 46.554688 85.238281 46.847656 85.21875 C 47.011719 85.207031 47.148438 85.273438 47.273438 85.335938 C 47.371094 85.382812 47.457031 85.421875 47.546875 85.421875 C 47.613281 85.417969 47.691406 85.386719 47.777344 85.351562 C 47.929688 85.289062 48.121094 85.210938 48.308594 85.320312 C 48.410156 85.378906 48.46875 85.472656 48.515625 85.550781 C 48.546875 85.605469 48.574219 85.65625 48.609375 85.675781 C 48.65625 85.703125 48.730469 85.699219 48.816406 85.691406 C 48.929688 85.683594 49.074219 85.675781 49.199219 85.753906 C 49.351562 85.847656 49.402344 86.015625 49.4375 86.148438 C 49.476562 86.28125 49.523438 86.351562 49.566406 86.355469 C 49.769531 86.386719 49.953125 86.527344 50.050781 86.726562 C 50.121094 86.871094 50.144531 87.03125 50.113281 87.179688 C 50.25 87.257812 50.347656 87.417969 50.363281 87.570312 C 50.363281 87.589844 50.359375 87.609375 50.359375 87.628906 C 50.363281 87.644531 50.363281 87.660156 50.355469 87.675781 C 50.351562 87.75 50.335938 87.824219 50.308594 87.890625 C 50.292969 87.855469 50.273438 87.816406 50.253906 87.78125 C 50.195312 87.800781 50.125 87.785156 50.085938 87.730469 C 50.058594 87.707031 49.9375 87.703125 49.855469 87.699219 C 49.847656 87.699219 49.835938 87.699219 49.832031 87.695312 C 49.667969 87.691406 49.496094 87.6875 49.386719 87.589844 C 49.3125 87.523438 49.273438 87.4375 49.246094 87.371094 C 49.234375 87.34375 49.21875 87.316406 49.203125 87.292969 C 49.140625 87.183594 48.976562 87.136719 48.863281 87.195312 C 48.828125 87.210938 48.796875 87.238281 48.761719 87.265625 C 48.667969 87.332031 48.546875 87.421875 48.390625 87.402344 C 48.316406 87.398438 48.257812 87.367188 48.207031 87.34375 C 48.175781 87.328125 48.140625 87.3125 48.121094 87.3125 C 48.09375 87.3125 48.046875 87.351562 48.003906 87.390625 C 47.957031 87.433594 47.902344 87.480469 47.828125 87.511719 C 47.703125 87.574219 47.570312 87.558594 47.453125 87.550781 C 47.355469 87.539062 47.273438 87.53125 47.222656 87.566406 C 47.179688 87.597656 47.160156 87.675781 47.140625 87.757812 C 47.089844 87.953125 46.898438 88.117188 46.699219 88.132812 C 46.601562 88.136719 46.515625 88.121094 46.4375 88.105469 C 46.386719 88.097656 46.335938 88.085938 46.285156 88.085938 C 46.085938 88.070312 45.890625 88.253906 45.871094 88.449219 C 45.871094 88.476562 45.871094 88.5 45.867188 88.527344 C 45.863281 88.652344 45.859375 88.820312 45.714844 88.925781 C 45.65625 88.964844 45.597656 88.980469 45.550781 88.992188 C 45.527344 89 45.5 89.007812 45.492188 89.011719 C 45.460938 89.03125 45.460938 89.121094 45.457031 89.195312 C 45.457031 89.328125 45.449219 89.484375 45.332031 89.601562 C 45.3125 89.621094 45.285156 89.640625 45.265625 89.65625 C 45.253906 89.664062 45.242188 89.671875 45.234375 89.679688 C 45.210938 89.699219 45.203125 89.757812 45.195312 89.8125 C 45.183594 89.894531 45.171875 89.996094 45.105469 90.078125 C 45.109375 90.078125 45.109375 90.082031 45.109375 90.082031 C 45.164062 90.113281 45.230469 90.152344 45.273438 90.222656 C 45.363281 90.363281 45.3125 90.527344 45.289062 90.605469 L 45.195312 90.902344 C 45.191406 90.914062 45.183594 90.941406 45.183594 90.949219 C 45.191406 90.953125 45.21875 90.972656 45.238281 90.988281 C 45.265625 91.007812 45.296875 91.027344 45.316406 91.050781 C 45.519531 91.234375 45.480469 91.539062 45.460938 91.6875 C 45.445312 91.800781 45.433594 91.898438 45.453125 91.980469 C 45.460938 92.023438 45.472656 92.0625 45.5 92.09375 C 45.5 92.09375 45.503906 92.09375 45.503906 92.097656 C 45.539062 92.136719 45.609375 92.160156 45.6875 92.183594 C 45.917969 92.257812 45.96875 92.367188 46.011719 92.449219 C 46.027344 92.488281 46.042969 92.515625 46.070312 92.546875 C 46.113281 92.59375 46.15625 92.65625 46.207031 92.71875 C 46.296875 92.839844 46.40625 92.992188 46.492188 93.035156 C 47.097656 93.363281 47.386719 93.519531 48.925781 92.632812 C 49.09375 92.535156 49.273438 92.484375 49.453125 92.4375 L 49.542969 92.410156 C 49.730469 92.355469 50.261719 92.296875 50.476562 92.332031 C 50.753906 92.375 50.957031 92.347656 51.082031 92.25 C 51.097656 92.238281 51.105469 92.21875 51.121094 92.207031 C 51.253906 92.066406 51.289062 91.832031 51.3125 91.621094 C 51.316406 91.5625 51.355469 91.511719 51.410156 91.492188 C 51.429688 91.484375 51.449219 91.484375 51.472656 91.484375 C 51.574219 91.492188 51.605469 91.539062 51.609375 91.652344 C 51.609375 91.65625 51.609375 91.65625 51.609375 91.65625 C 51.625 91.703125 51.621094 91.757812 51.621094 91.824219 Z M 50.386719 93.105469 C 50.277344 93.113281 50.171875 93.117188 50.058594 93.121094 C 49.945312 93.128906 49.832031 93.144531 49.71875 93.148438 C 49.488281 93.164062 49.257812 93.15625 49.027344 93.144531 C 48.9375 93.140625 48.859375 93.21875 48.859375 93.308594 C 48.859375 93.398438 48.9375 93.464844 49.027344 93.46875 C 49.269531 93.476562 49.515625 93.480469 49.757812 93.460938 C 49.886719 93.449219 50.003906 93.433594 50.125 93.390625 C 50.238281 93.347656 50.339844 93.285156 50.4375 93.210938 C 50.476562 93.175781 50.441406 93.101562 50.386719 93.105469 Z M 47.429688 91.074219 C 47.460938 91.105469 47.515625 91.136719 47.558594 91.144531 C 47.578125 91.152344 47.609375 91.15625 47.636719 91.15625 C 47.695312 91.152344 47.714844 91.144531 47.769531 91.121094 C 47.796875 91.109375 47.820312 91.089844 47.839844 91.070312 C 47.859375 91.050781 47.871094 91.03125 47.886719 91.015625 C 47.894531 91.007812 47.894531 91.003906 47.898438 90.996094 C 47.910156 90.972656 47.921875 90.953125 47.929688 90.929688 C 47.933594 90.90625 47.9375 90.871094 47.941406 90.855469 C 47.945312 90.824219 47.933594 90.789062 47.929688 90.761719 C 47.925781 90.730469 47.910156 90.699219 47.898438 90.671875 C 47.882812 90.644531 47.859375 90.621094 47.839844 90.597656 C 47.777344 90.542969 47.695312 90.507812 47.613281 90.507812 C 47.558594 90.507812 47.507812 90.519531 47.457031 90.546875 C 47.457031 90.546875 47.453125 90.546875 47.453125 90.550781 C 47.433594 90.5625 47.414062 90.578125 47.398438 90.589844 C 47.378906 90.605469 47.363281 90.625 47.347656 90.644531 C 47.289062 90.730469 47.289062 90.863281 47.351562 90.945312 C 47.367188 90.992188 47.394531 91.039062 47.429688 91.074219 Z M 96.660156 124.308594 L 96.277344 124.042969 L 94.089844 122.53125 L 93.714844 122.273438 L 90.644531 120.148438 L 90.359375 119.957031 L 67.636719 104.246094 L 67.132812 103.898438 C 67.128906 103.902344 67.128906 103.910156 67.125 103.914062 C 67.09375 103.964844 67.078125 103.984375 67.074219 103.996094 C 67.066406 104.019531 67.070312 104.054688 67.070312 104.078125 L 67.074219 104.207031 C 67.074219 104.242188 67.074219 104.277344 67.078125 104.3125 L 67.375 104.519531 L 90.101562 120.550781 L 90.382812 120.75 L 92.882812 122.511719 L 93.253906 122.773438 L 95.382812 124.273438 L 95.761719 124.539062 L 104.121094 130.4375 C 104.574219 130.425781 105.027344 130.414062 105.484375 130.40625 L 100.425781 126.90625 Z M 47.402344 89.890625 C 47.472656 89.886719 47.542969 89.882812 47.617188 89.886719 C 47.777344 89.890625 47.945312 89.75 47.933594 89.585938 C 47.929688 89.421875 47.785156 89.273438 47.617188 89.28125 C 47.273438 89.296875 46.949219 89.378906 46.65625 89.558594 C 46.519531 89.640625 46.390625 89.734375 46.273438 89.84375 C 46.152344 89.953125 46.03125 90.074219 45.980469 90.230469 C 45.9375 90.363281 46.101562 90.453125 46.210938 90.394531 C 46.335938 90.332031 46.421875 90.238281 46.539062 90.167969 C 46.597656 90.132812 46.65625 90.097656 46.714844 90.070312 C 46.746094 90.054688 46.777344 90.042969 46.808594 90.027344 C 46.8125 90.027344 46.808594 90.027344 46.8125 90.027344 C 46.816406 90.027344 46.8125 90.027344 46.816406 90.027344 C 46.832031 90.019531 46.851562 90.011719 46.867188 90.003906 C 46.996094 89.960938 47.125 89.9375 47.253906 89.910156 C 47.289062 89.90625 47.320312 89.898438 47.351562 89.894531 C 47.367188 89.894531 47.386719 89.894531 47.402344 89.890625 Z M 72.683594 114.191406 L 62.816406 109.558594 C 62.78125 109.542969 62.738281 109.542969 62.699219 109.554688 C 62.664062 109.570312 62.632812 109.597656 62.617188 109.632812 C 62.59375 109.679688 62.574219 109.722656 62.550781 109.769531 C 62.515625 109.847656 62.476562 109.925781 62.441406 110 C 62.402344 110.082031 62.363281 110.164062 62.324219 110.242188 C 62.273438 110.34375 62.21875 110.4375 62.164062 110.53125 C 62.121094 110.613281 62.078125 110.691406 62.035156 110.765625 C 61.980469 110.859375 61.921875 110.953125 61.863281 111.042969 C 61.816406 111.117188 61.773438 111.195312 61.722656 111.265625 C 61.664062 111.359375 61.601562 111.445312 61.539062 111.535156 C 61.492188 111.605469 61.441406 111.675781 61.394531 111.742188 C 61.328125 111.832031 61.261719 111.914062 61.191406 112.003906 C 61.140625 112.066406 61.09375 112.132812 61.039062 112.199219 C 60.96875 112.285156 60.894531 112.367188 60.820312 112.449219 C 60.769531 112.507812 60.71875 112.566406 60.667969 112.625 C 60.585938 112.714844 60.503906 112.792969 60.421875 112.878906 C 60.371094 112.925781 60.324219 112.980469 60.273438 113.03125 C 60.175781 113.125 60.074219 113.214844 59.972656 113.304688 C 59.933594 113.335938 59.898438 113.375 59.855469 113.410156 C 59.714844 113.53125 59.570312 113.648438 59.421875 113.761719 C 59.402344 113.777344 59.382812 113.792969 59.363281 113.804688 C 59.234375 113.902344 59.105469 113.996094 58.96875 114.085938 C 58.914062 114.125 58.859375 114.15625 58.804688 114.191406 C 58.703125 114.257812 58.601562 114.324219 58.5 114.386719 C 58.433594 114.425781 58.367188 114.460938 58.300781 114.496094 C 58.203125 114.550781 58.109375 114.609375 58.011719 114.660156 C 57.9375 114.695312 57.863281 114.730469 57.792969 114.765625 C 57.699219 114.8125 57.605469 114.859375 57.507812 114.902344 C 57.429688 114.9375 57.351562 114.96875 57.273438 115 C 57.179688 115.039062 57.082031 115.082031 56.984375 115.117188 C 56.902344 115.148438 56.820312 115.175781 56.738281 115.203125 C 56.644531 115.238281 56.546875 115.269531 56.449219 115.300781 C 56.363281 115.328125 56.277344 115.351562 56.191406 115.375 C 56.113281 115.398438 56.03125 115.421875 55.953125 115.441406 C 55.914062 115.449219 55.878906 115.464844 55.839844 115.472656 C 55.796875 115.484375 55.757812 115.515625 55.738281 115.554688 C 55.722656 115.597656 55.722656 115.644531 55.746094 115.6875 C 56.160156 116.460938 56.964844 117.542969 58.460938 118.292969 C 61.136719 119.640625 67.789062 121.277344 67.855469 121.292969 C 67.867188 121.296875 67.878906 121.296875 67.890625 121.296875 C 67.921875 121.296875 67.945312 121.289062 67.972656 121.273438 C 68.003906 121.25 68.03125 121.214844 68.035156 121.175781 C 68.039062 121.164062 68.113281 120.800781 68.3125 120.316406 C 68.347656 120.234375 68.386719 120.144531 68.429688 120.054688 C 68.476562 119.960938 68.527344 119.863281 68.578125 119.765625 C 68.832031 119.316406 69.195312 118.839844 69.699219 118.484375 C 70.753906 117.738281 71.910156 115.867188 72.445312 114.933594 C 72.503906 114.832031 72.554688 114.746094 72.597656 114.667969 C 72.597656 114.664062 72.597656 114.664062 72.597656 114.664062 C 72.660156 114.554688 72.707031 114.46875 72.730469 114.421875 C 72.734375 114.414062 72.746094 114.394531 72.746094 114.390625 C 72.769531 114.355469 72.769531 114.3125 72.757812 114.273438 C 72.75 114.238281 72.71875 114.207031 72.683594 114.191406 Z M 50.246094 90.117188 C 50.25 90.125 50.25 90.132812 50.253906 90.140625 C 50.257812 90.167969 50.261719 90.195312 50.265625 90.21875 C 50.265625 90.246094 50.261719 90.273438 50.253906 90.296875 C 50.25 90.316406 50.242188 90.332031 50.234375 90.351562 C 50.234375 90.355469 50.234375 90.363281 50.230469 90.367188 C 50.21875 90.398438 50.203125 90.425781 50.175781 90.445312 C 50.160156 90.460938 50.140625 90.472656 50.125 90.484375 C 50.097656 90.503906 50.0625 90.511719 50.027344 90.515625 C 49.996094 90.519531 49.957031 90.519531 49.925781 90.507812 C 49.878906 90.5 49.835938 90.472656 49.800781 90.441406 C 49.792969 90.4375 49.792969 90.433594 49.789062 90.429688 C 49.75 90.390625 49.722656 90.347656 49.707031 90.292969 C 49.707031 90.28125 49.703125 90.269531 49.703125 90.253906 C 49.699219 90.242188 49.699219 90.226562 49.699219 90.214844 C 49.699219 90.207031 49.699219 90.199219 49.699219 90.195312 C 49.699219 90.164062 49.703125 90.128906 49.710938 90.097656 C 49.710938 90.09375 49.714844 90.085938 49.714844 90.082031 C 49.722656 90.0625 49.734375 90.039062 49.742188 90.019531 C 49.746094 90.019531 49.746094 90.015625 49.746094 90.015625 C 49.78125 89.957031 49.84375 89.910156 49.910156 89.894531 C 49.914062 89.894531 49.914062 89.894531 49.917969 89.890625 C 49.953125 89.882812 49.984375 89.878906 50.015625 89.886719 C 50.027344 89.886719 50.042969 89.890625 50.054688 89.890625 C 50.074219 89.898438 50.089844 89.90625 50.113281 89.914062 C 50.128906 89.925781 50.144531 89.9375 50.160156 89.949219 C 50.164062 89.953125 50.164062 89.953125 50.164062 89.953125 C 50.199219 89.988281 50.203125 89.996094 50.21875 90.03125 C 50.21875 90.03125 50.222656 90.035156 50.222656 90.035156 C 50.230469 90.066406 50.238281 90.089844 50.246094 90.117188 Z M 50.109375 90.058594 C 50.105469 90.058594 50.105469 90.054688 50.105469 90.054688 C 50.105469 90.054688 50.105469 90.054688 50.109375 90.058594 Z M 50.15625 90.09375 C 50.15625 90.09375 50.152344 90.089844 50.148438 90.085938 C 50.148438 90.082031 50.144531 90.082031 50.140625 90.078125 C 50.144531 90.082031 50.148438 90.089844 50.15625 90.09375 Z M 50.15625 90.09375 " fill-opacity="1" fill-rule="nonzero"/><path fill="#5ce1e6" d="M 50.25 91.175781 C 50.414062 91.363281 50.5625 91.609375 50.429688 91.855469 C 50.378906 91.957031 50.289062 92.046875 50.199219 92.117188 C 50.097656 92.207031 49.996094 92.265625 49.863281 92.207031 C 49.808594 92.1875 49.796875 92.125 49.804688 92.074219 C 49.835938 91.882812 50.148438 91.867188 50.167969 91.660156 C 50.175781 91.570312 50.101562 91.472656 50.046875 91.40625 C 49.992188 91.328125 49.921875 91.265625 49.855469 91.199219 C 49.699219 91.050781 49.542969 90.910156 49.398438 90.75 C 49.257812 90.59375 49.140625 90.410156 49.019531 90.234375 C 48.960938 90.15625 49.089844 90.074219 49.152344 90.136719 C 49.339844 90.320312 49.53125 90.503906 49.71875 90.6875 C 49.894531 90.851562 50.089844 90.992188 50.25 91.175781 Z M 50.386719 93.105469 C 50.277344 93.113281 50.171875 93.117188 50.058594 93.121094 C 49.945312 93.128906 49.832031 93.144531 49.71875 93.148438 C 49.488281 93.164062 49.257812 93.15625 49.027344 93.144531 C 48.9375 93.140625 48.859375 93.21875 48.859375 93.308594 C 48.859375 93.398438 48.9375 93.464844 49.027344 93.46875 C 49.269531 93.476562 49.515625 93.480469 49.757812 93.460938 C 49.886719 93.449219 50.003906 93.433594 50.125 93.390625 C 50.238281 93.347656 50.339844 93.285156 50.4375 93.210938 C 50.476562 93.175781 50.441406 93.101562 50.386719 93.105469 Z M 44.558594 92.753906 C 44.535156 92.75 44.519531 92.753906 44.496094 92.757812 C 44.488281 92.757812 44.488281 92.757812 44.488281 92.761719 C 44.480469 92.761719 44.472656 92.761719 44.472656 92.757812 C 44.460938 92.753906 44.453125 92.753906 44.445312 92.75 C 44.441406 92.75 44.429688 92.746094 44.429688 92.746094 C 44.417969 92.738281 44.410156 92.734375 44.398438 92.726562 C 44.410156 92.734375 44.390625 92.71875 44.386719 92.714844 C 44.378906 92.707031 44.367188 92.699219 44.363281 92.691406 C 44.289062 92.621094 44.246094 92.519531 44.183594 92.441406 C 44.113281 92.355469 44.027344 92.28125 43.914062 92.25 C 43.820312 92.222656 43.707031 92.242188 43.617188 92.277344 C 43.582031 92.292969 43.601562 92.34375 43.632812 92.34375 C 43.734375 92.34375 43.828125 92.382812 43.910156 92.4375 C 43.992188 92.496094 44.03125 92.59375 44.074219 92.679688 C 44.125 92.785156 44.183594 92.878906 44.28125 92.949219 C 44.386719 93.023438 44.546875 93.066406 44.652344 92.96875 C 44.691406 92.9375 44.703125 92.878906 44.679688 92.832031 C 44.65625 92.78125 44.609375 92.757812 44.558594 92.753906 Z M 88.667969 123.792969 C 88.667969 123.792969 88.667969 123.789062 88.667969 123.789062 Z M 123.515625 45.214844 C 123.4375 45.195312 123.355469 45.234375 123.320312 45.3125 L 122.894531 46.277344 L 122.257812 47.714844 L 90.363281 119.957031 L 90.644531 120.148438 L 93.71875 122.273438 L 118.574219 115.144531 L 118.683594 115.113281 C 118.742188 115.097656 118.800781 115.105469 118.84375 115.144531 C 118.882812 115.175781 118.898438 115.21875 118.902344 115.261719 L 123.644531 45.390625 C 123.648438 45.304688 123.597656 45.230469 123.515625 45.214844 Z M 90.097656 120.550781 L 88.6875 123.75 C 88.707031 123.722656 88.738281 123.699219 88.773438 123.6875 L 89.125 123.589844 L 92.882812 122.511719 L 90.382812 120.746094 Z M 83.34375 132.277344 C 82.863281 132.234375 82.421875 132.101562 82.125 131.835938 C 81.878906 131.617188 81.726562 131.3125 81.730469 130.867188 C 81.742188 130.148438 81.878906 129.4375 81.351562 128.847656 C 80.789062 128.222656 79.886719 127.773438 79.15625 127.378906 C 78.523438 127.039062 77.859375 126.738281 77.253906 126.359375 C 77.175781 126.308594 77.09375 126.265625 77.019531 126.214844 C 76.660156 125.96875 76.332031 125.671875 76.101562 125.300781 C 76 125.140625 75.921875 124.964844 75.855469 124.789062 C 75.746094 124.5 75.660156 124.199219 75.570312 123.902344 C 75.46875 123.59375 75.355469 123.28125 75.226562 122.972656 C 75.1875 122.878906 75.152344 122.785156 75.109375 122.691406 C 74.9375 122.304688 74.738281 121.933594 74.511719 121.585938 C 73.941406 120.710938 72.851562 120.617188 71.90625 120.4375 C 70.824219 120.230469 69.714844 120.125 68.636719 119.886719 C 68.585938 119.875 68.5625 119.945312 68.617188 119.960938 C 68.839844 120.023438 69.0625 120.082031 69.289062 120.136719 C 69.460938 120.175781 69.636719 120.214844 69.8125 120.253906 C 70.167969 120.328125 70.523438 120.402344 70.875 120.46875 C 71.070312 120.507812 71.261719 120.546875 71.453125 120.585938 C 71.949219 120.691406 72.453125 120.78125 72.949219 120.902344 C 73.085938 120.933594 73.230469 120.96875 73.367188 121.015625 C 73.914062 121.207031 74.191406 121.554688 74.460938 122.042969 C 74.925781 122.890625 75.183594 123.777344 75.488281 124.6875 C 75.726562 125.402344 76.132812 125.960938 76.746094 126.410156 C 77.433594 126.914062 78.230469 127.257812 78.957031 127.695312 C 79.347656 127.929688 79.734375 128.167969 80.117188 128.414062 C 80.53125 128.6875 81.035156 128.957031 81.238281 129.433594 C 81.574219 130.214844 81.0625 131.152344 81.652344 131.863281 C 81.808594 132.050781 82.023438 132.21875 82.257812 132.339844 C 82.609375 132.523438 83.015625 132.609375 83.378906 132.507812 C 83.449219 132.484375 83.472656 132.425781 83.460938 132.375 C 83.445312 132.328125 83.40625 132.28125 83.34375 132.277344 Z M 83.34375 132.277344 " fill-opacity="1" fill-rule="nonzero"/><path fill="#5f7044" d="M 62.441406 108.90625 C 62.472656 108.949219 62.476562 109.003906 62.457031 109.050781 C 62.441406 109.097656 62.398438 109.132812 62.34375 109.140625 C 62.238281 109.160156 62.136719 109.191406 62.039062 109.222656 C 61.90625 109.265625 61.78125 109.320312 61.65625 109.386719 C 60.773438 109.851562 60.023438 110.835938 59.246094 111.867188 C 58.253906 113.175781 57.230469 114.523438 55.78125 115.054688 C 55.6875 115.089844 55.589844 115.121094 55.496094 115.148438 C 55.429688 115.164062 55.363281 115.1875 55.300781 115.203125 C 54.714844 115.332031 54.140625 115.386719 53.601562 115.386719 C 51.28125 115.386719 49.480469 114.402344 49.238281 114.261719 C 49.007812 114.207031 48.464844 113.738281 48.464844 110.640625 C 48.464844 109.238281 48.363281 108.054688 47.871094 106.847656 C 47.628906 106.257812 47.347656 105.652344 47.070312 105.070312 C 46.25 103.324219 45.402344 101.519531 45.382812 99.480469 C 45.378906 99.285156 45.386719 99.101562 45.390625 98.921875 C 45.394531 98.894531 45.394531 98.871094 45.398438 98.84375 C 45.40625 98.679688 45.417969 98.523438 45.4375 98.375 C 45.441406 98.34375 45.445312 98.316406 45.449219 98.289062 C 45.464844 98.144531 45.488281 98.007812 45.511719 97.878906 C 45.515625 97.859375 45.519531 97.839844 45.523438 97.820312 C 45.546875 97.695312 45.574219 97.574219 45.601562 97.464844 C 45.605469 97.460938 45.605469 97.457031 45.605469 97.449219 C 45.636719 97.339844 45.664062 97.238281 45.695312 97.144531 C 45.699219 97.128906 45.707031 97.113281 45.710938 97.097656 C 45.738281 97.011719 45.769531 96.933594 45.796875 96.863281 C 45.800781 96.851562 45.804688 96.839844 45.8125 96.828125 C 45.839844 96.757812 45.871094 96.699219 45.894531 96.644531 C 45.898438 96.640625 45.902344 96.640625 45.902344 96.636719 C 45.929688 96.582031 45.957031 96.539062 45.980469 96.503906 C 46.007812 96.464844 46.03125 96.4375 46.046875 96.429688 C 46.167969 96.363281 46.285156 96.308594 46.398438 96.257812 C 48.179688 95.496094 49.660156 96.46875 50.863281 97.257812 C 51.269531 97.523438 51.65625 97.777344 52.003906 97.929688 C 52.898438 98.324219 53.542969 98.113281 53.882812 97.917969 C 54.035156 97.828125 54.125 97.746094 54.152344 97.722656 C 54.152344 97.71875 54.15625 97.714844 54.15625 97.714844 C 54.207031 97.667969 54.28125 97.65625 54.339844 97.6875 C 54.355469 97.699219 54.53125 97.800781 55.738281 98.738281 C 55.84375 98.820312 55.953125 98.914062 56.058594 99.011719 C 56.085938 99.035156 56.113281 99.058594 56.140625 99.085938 C 56.246094 99.183594 56.355469 99.289062 56.464844 99.40625 C 56.46875 99.40625 56.472656 99.410156 56.472656 99.414062 C 56.589844 99.535156 56.707031 99.667969 56.824219 99.804688 C 56.847656 99.832031 56.871094 99.863281 56.898438 99.890625 C 57.015625 100.03125 57.132812 100.175781 57.253906 100.332031 C 57.253906 100.332031 57.253906 100.332031 57.253906 100.335938 C 57.378906 100.5 57.507812 100.671875 57.636719 100.851562 C 57.65625 100.878906 57.675781 100.910156 57.695312 100.9375 C 57.953125 101.304688 58.222656 101.710938 58.496094 102.152344 C 58.511719 102.175781 58.527344 102.199219 58.542969 102.226562 C 58.679688 102.449219 58.816406 102.675781 58.957031 102.917969 C 58.832031 102.898438 58.703125 102.875 58.570312 102.855469 C 57.636719 102.707031 56.558594 102.585938 55.589844 102.683594 C 55.234375 102.257812 53.21875 99.871094 51.472656 98.742188 C 51.34375 98.550781 50.636719 97.53125 49.375 97.066406 C 47.929688 96.53125 46.835938 96.574219 46.121094 97.1875 C 46.050781 97.246094 45.992188 97.3125 45.933594 97.382812 C 45.523438 97.882812 45.382812 98.660156 45.683594 99.546875 C 45.820312 99.945312 46.046875 100.363281 46.378906 100.789062 C 47.054688 101.640625 47.472656 101.925781 47.808594 102.15625 C 47.925781 102.238281 48.035156 102.3125 48.148438 102.410156 C 48.589844 102.78125 50.542969 104.121094 53.503906 105.945312 C 53.5625 105.976562 54.695312 106.546875 56.695312 106.546875 C 57.242188 106.546875 57.859375 106.503906 58.53125 106.394531 C 59.199219 106.285156 59.792969 106.179688 60.324219 106.082031 C 60.429688 106.0625 60.53125 106.042969 60.632812 106.023438 C 60.714844 106.171875 60.796875 106.316406 60.875 106.457031 C 60.894531 106.496094 60.917969 106.527344 60.9375 106.5625 C 61 106.671875 61.066406 106.785156 61.125 106.886719 C 61.140625 106.914062 61.160156 106.941406 61.175781 106.972656 C 61.25 107.101562 61.328125 107.226562 61.402344 107.347656 C 61.410156 107.355469 61.417969 107.367188 61.421875 107.378906 C 61.492188 107.484375 61.554688 107.589844 61.617188 107.6875 C 61.632812 107.714844 61.648438 107.742188 61.667969 107.765625 C 61.722656 107.855469 61.777344 107.9375 61.832031 108.019531 C 61.839844 108.03125 61.851562 108.046875 61.863281 108.0625 C 61.921875 108.152344 61.980469 108.238281 62.03125 108.316406 C 62.042969 108.335938 62.054688 108.347656 62.0625 108.363281 C 62.105469 108.425781 62.144531 108.480469 62.179688 108.535156 C 62.191406 108.550781 62.203125 108.566406 62.210938 108.582031 C 62.25 108.636719 62.285156 108.6875 62.316406 108.730469 C 62.316406 108.730469 62.320312 108.730469 62.320312 108.734375 C 62.394531 108.84375 62.4375 108.902344 62.441406 108.90625 Z M 141.34375 135.257812 C 140.523438 138.375 139.46875 141.4375 138.265625 144.425781 C 137.65625 145.9375 136.976562 147.414062 136.265625 148.875 C 135.972656 149.476562 135.664062 150.070312 135.296875 150.628906 C 134.886719 151.246094 134.378906 151.714844 133.875 152.246094 C 133.585938 152.550781 133.964844 153.003906 134.328125 152.804688 C 135.511719 152.136719 136.234375 150.667969 136.785156 149.492188 C 137.472656 148.007812 138.070312 146.484375 138.648438 144.957031 C 139.84375 141.808594 140.789062 138.59375 141.558594 135.316406 C 141.589844 135.179688 141.378906 135.125 141.34375 135.257812 Z M 141.34375 135.257812 " fill-opacity="1" fill-rule="nonzero"/></svg>