<svg xmlns="http://www.w3.org/2000/svg" xmlns:xlink="http://www.w3.org/1999/xlink" width="262" zoomAndPan="magnify" viewBox="0 0 196.5 205.499992" height="274" preserveAspectRatio="xMidYMid meet" version="1.0"><defs><clipPath id="95a06f7760"><path d="M 49.484375 77 L 98 77 L 98 151 L 49.484375 151 Z M 49.484375 77 " clip-rule="nonzero"/></clipPath><clipPath id="de112b88d0"><path d="M 102.511719 65.929688 L 125.1875 65.929688 L 125.1875 160.285156 L 102.511719 160.285156 Z M 102.511719 65.929688 " clip-rule="nonzero"/></clipPath><clipPath id="7a78a6bf57"><path d="M 92 82.21875 L 146.984375 82.21875 L 146.984375 155 L 92 155 Z M 92 82.21875 " clip-rule="nonzero"/></clipPath><clipPath id="01620b210f"><path d="M 64 60.585938 L 128 60.585938 L 128 156 L 64 156 Z M 64 60.585938 " clip-rule="nonzero"/></clipPath></defs><g clip-path="url(#95a06f7760)"><path fill="#eca97c" d="M 72.621094 123.847656 C 71.46875 123.929688 70.394531 123.949219 69.417969 123.90625 L 71.726562 133.421875 L 67.332031 148.773438 C 68.207031 149.074219 69.0625 149.371094 69.9375 149.667969 C 70.691406 148.121094 71.867188 145.875 73.4375 143.214844 C 76.839844 137.453125 78.371094 136.242188 78.230469 133.5 C 78.191406 132.746094 78.070312 132.964844 76.660156 127.484375 C 76.222656 125.816406 75.882812 124.425781 75.644531 123.492188 C 74.710938 123.648438 73.714844 123.769531 72.621094 123.847656 Z M 80.71875 122.238281 C 79.445312 122.695312 78.269531 122.996094 77.214844 123.214844 L 79.921875 134.117188 L 75.625 149.273438 C 76.519531 149.628906 77.414062 150.007812 78.332031 150.363281 C 80.597656 146.234375 82.386719 142.699219 83.742188 139.957031 C 85.808594 135.746094 86.207031 134.613281 86.226562 133.023438 C 86.226562 131.238281 85.730469 130.324219 84.4375 124.941406 C 84.039062 123.3125 83.742188 121.960938 83.542969 121.066406 C 82.707031 121.464844 81.769531 121.882812 80.71875 122.238281 Z M 79.644531 84.324219 C 79.226562 85.433594 78.808594 86.566406 78.390625 87.679688 C 79.164062 87.5 79.941406 87.324219 80.71875 87.164062 C 82.1875 89.230469 83.5 90.839844 84.515625 91.988281 C 86.464844 94.253906 87.222656 94.808594 88.035156 94.730469 C 88.972656 94.652344 89.566406 93.757812 90.441406 92.445312 C 92.234375 89.746094 93.664062 87.519531 94.679688 85.914062 C 95.078125 85.753906 96.96875 84.917969 97.523438 83.011719 C 97.824219 81.960938 97.742188 80.53125 97.226562 80.371094 C 96.589844 80.171875 95.457031 81.917969 94.738281 83.171875 C 94.421875 81.917969 94.183594 81.285156 94.003906 81.304688 C 93.765625 81.324219 93.664062 82.476562 93.664062 84.71875 C 91.796875 86.269531 89.925781 87.820312 88.035156 89.347656 C 87.300781 88.097656 86.484375 86.785156 85.570312 85.433594 C 84.136719 83.332031 82.6875 81.464844 81.273438 79.816406 C 80.757812 81.324219 80.199219 82.8125 79.644531 84.324219 Z M 68.207031 80.828125 C 67.550781 82.417969 66.871094 84.023438 66.214844 85.613281 C 65.402344 88.773438 63.871094 90.578125 62.996094 91.433594 C 62.199219 92.226562 61.484375 92.902344 60.488281 92.921875 C 59.296875 92.941406 58.339844 91.988281 56.550781 89.6875 C 55.398438 88.195312 53.886719 86.191406 52.214844 83.667969 C 51.996094 83.546875 50.007812 82.496094 49.648438 80.3125 C 49.488281 79.199219 49.808594 78.285156 50.007812 77.867188 C 50.484375 78.464844 50.941406 79.039062 51.417969 79.636719 C 51.539062 78.800781 51.695312 78.382812 51.855469 78.363281 C 52.113281 78.34375 52.414062 79.335938 52.75 81.285156 L 60.546875 87.859375 C 62.058594 84.839844 63.570312 81.839844 65.0625 78.820312 C 65.5 77.929688 66.855469 77.828125 67.726562 77.550781 C 67.726562 77.570312 68.207031 80.828125 68.207031 80.828125 " fill-opacity="1" fill-rule="nonzero"/></g><g clip-path="url(#de112b88d0)"><path fill="#0d2a52" d="M 119.878906 154.296875 C 120.257812 154.992188 120.597656 155.867188 120.4375 156.839844 C 120.117188 158.804688 117.992188 159.796875 118.191406 160.175781 C 118.328125 160.433594 119.421875 160.296875 122.984375 158.984375 C 123.003906 158.527344 123.023438 158.070312 123.042969 157.632812 C 123.203125 158.089844 123.378906 158.546875 123.539062 158.984375 C 124.058594 158.707031 124.59375 158.429688 125.109375 158.128906 C 124.953125 157.515625 124.714844 156.757812 124.296875 155.945312 C 123.71875 154.8125 123.042969 153.960938 122.484375 153.382812 C 121.609375 153.699219 120.734375 154 119.878906 154.296875 Z M 111.488281 154.992188 C 111.566406 155.488281 111.605469 156.324219 111.1875 157.078125 C 110.273438 158.726562 107.847656 158.886719 107.886719 159.203125 C 107.90625 159.382812 108.703125 159.539062 112.582031 159.382812 L 113.476562 157.195312 L 113.476562 159.382812 L 115.085938 159.382812 C 115.265625 158.84375 115.605469 157.574219 115.226562 156.042969 C 114.96875 155.050781 114.511719 154.316406 114.171875 153.898438 Z M 106.015625 69.585938 C 106.214844 69.03125 106.8125 67.679688 108.203125 66.785156 C 110.394531 65.414062 112.800781 66.210938 113.335938 66.386719 C 114.730469 66.84375 115.84375 68.117188 116.875 69.089844 C 118.167969 70.339844 119.800781 71.511719 120.078125 73.4375 C 120.199219 74.273438 120.039062 75.167969 120.476562 75.882812 C 120.796875 76.417969 121.371094 76.753906 121.96875 76.992188 C 122.546875 77.234375 123.160156 77.429688 123.660156 77.828125 C 125.230469 79.058594 123.859375 81.246094 122.984375 82.457031 C 117.949219 83.371094 112.898438 84.28125 107.867188 85.214844 C 108.007812 84.402344 108.105469 83.050781 107.566406 81.621094 C 106.472656 78.601562 103.867188 78.503906 102.972656 75.644531 C 102.476562 74.035156 102.554688 71.710938 103.96875 70.460938 C 104.644531 69.84375 105.480469 69.644531 106.015625 69.585938 " fill-opacity="1" fill-rule="nonzero"/></g><g clip-path="url(#7a78a6bf57)"><path fill="#efbf9e" d="M 121.171875 90.0625 L 123.738281 90.898438 C 125.46875 92.785156 126.664062 94.453125 127.476562 95.664062 C 128.433594 97.09375 128.910156 97.828125 129.984375 98.5625 C 130.917969 99.199219 131.855469 99.496094 133.921875 99.855469 C 135.574219 100.132812 137.800781 100.449219 140.507812 100.550781 C 140.921875 100.96875 141.660156 101.621094 142.753906 101.902344 C 144.761719 102.417969 147.011719 101.445312 146.988281 100.808594 C 146.988281 100.550781 146.59375 99.953125 142.375 99.359375 C 143.90625 98.683594 144.027344 98.40625 144.007812 98.285156 C 143.925781 97.96875 142.652344 98.027344 142.535156 98.027344 C 141.71875 98.066406 141.0625 98.285156 140.644531 98.464844 L 131.59375 94.75 L 122.066406 82.21875 Z M 114.191406 128.136719 C 113.992188 129.113281 113.65625 130.621094 113.15625 132.429688 C 112.144531 136.125 111.664062 136.71875 111.585938 138.148438 C 111.464844 140.195312 112.300781 141.546875 114.488281 145.199219 C 115.523438 146.949219 117.3125 149.945312 119.878906 154.316406 C 120.753906 154.019531 121.609375 153.722656 122.484375 153.421875 L 118.070312 138.050781 L 120.378906 128.535156 C 119.402344 128.554688 118.328125 128.554688 117.175781 128.476562 C 116.101562 128.398438 115.105469 128.277344 114.191406 128.136719 Z M 106.296875 125.695312 C 106.097656 126.589844 105.796875 127.941406 105.398438 129.570312 C 104.085938 134.953125 103.589844 135.863281 103.609375 137.652344 C 103.609375 139.261719 104.027344 140.375 106.097656 144.585938 C 107.449219 147.324219 109.238281 150.878906 111.507812 154.992188 C 112.402344 154.632812 113.296875 154.257812 114.210938 153.898438 L 109.914062 138.746094 L 112.621094 127.839844 C 111.566406 127.621094 110.394531 127.324219 109.121094 126.867188 C 108.046875 126.511719 107.109375 126.09375 106.296875 125.695312 Z M 111.425781 92.289062 C 110.652344 92.109375 109.875 91.929688 109.101562 91.769531 C 107.628906 93.835938 106.316406 95.445312 105.300781 96.597656 C 103.351562 98.863281 102.597656 99.417969 101.78125 99.339844 C 100.84375 99.257812 100.25 98.367188 99.375 97.054688 C 97.582031 94.351562 96.152344 92.128906 95.136719 90.519531 C 94.738281 90.359375 92.851562 89.527344 92.292969 87.621094 C 91.996094 86.566406 92.074219 85.136719 92.589844 84.980469 C 93.226562 84.78125 94.363281 86.527344 95.078125 87.777344 C 95.394531 86.527344 95.632812 85.890625 95.8125 85.914062 C 96.050781 85.933594 96.152344 87.085938 96.152344 89.328125 C 98.019531 90.878906 99.890625 92.425781 101.78125 93.957031 C 102.515625 92.703125 103.332031 91.394531 104.246094 90.042969 C 105.679688 87.9375 107.128906 86.070312 108.542969 84.421875 L 111.425781 92.289062 " fill-opacity="1" fill-rule="nonzero"/></g><g clip-path="url(#01620b210f)"><path fill="#000000" d="M 67.332031 148.773438 C 66.792969 149.351562 66.097656 150.183594 65.519531 151.335938 C 65.101562 152.152344 64.863281 152.90625 64.707031 153.523438 C 65.222656 153.800781 65.757812 154.078125 66.277344 154.375 C 66.433594 153.917969 66.613281 153.460938 66.773438 153.027344 C 66.792969 153.484375 66.8125 153.9375 66.832031 154.375 C 70.394531 155.6875 71.507812 155.828125 71.628906 155.566406 C 71.828125 155.171875 69.699219 154.199219 69.378906 152.230469 C 69.21875 151.257812 69.539062 150.382812 69.9375 149.6875 C 69.0625 149.371094 68.207031 149.074219 67.332031 148.773438 Z M 75.625 149.273438 C 75.308594 149.6875 74.828125 150.421875 74.570312 151.417969 C 74.191406 152.945312 74.53125 154.21875 74.710938 154.753906 L 76.320312 154.753906 L 76.320312 152.570312 L 77.214844 154.753906 C 81.09375 154.914062 81.890625 154.753906 81.910156 154.574219 C 81.949219 154.257812 79.523438 154.117188 78.609375 152.449219 C 78.191406 151.675781 78.230469 150.859375 78.308594 150.363281 Z M 126.742188 107.324219 C 126.226562 105.355469 125.449219 104.402344 124.851562 103.074219 C 124.574219 102.476562 124.335938 101.800781 124.15625 100.929688 C 124.097656 100.589844 124.035156 100.234375 123.976562 99.816406 C 123.660156 97.234375 124.117188 95.464844 123.976562 92.964844 C 123.9375 92.386719 123.878906 91.769531 123.777344 91.117188 C 123.738281 90.839844 123.679688 90.539062 123.621094 90.222656 C 123.28125 88.613281 122.824219 87.34375 122.484375 86.488281 C 122.347656 85.039062 122.226562 83.609375 122.085938 82.160156 L 120.199219 82.160156 C 120.535156 83.546875 120.855469 84.957031 121.191406 86.347656 C 120.4375 86.667969 119.523438 87.023438 118.46875 87.324219 C 117.792969 87.519531 117.054688 87.679688 116.261719 87.820312 C 116.179688 87.839844 116.082031 87.859375 116 87.859375 C 113.8125 88.195312 111.945312 88.117188 110.550781 87.976562 L 109.796875 83.964844 L 108.503906 84.421875 L 109.695312 88.949219 C 109.539062 89.289062 109.339844 89.765625 109.199219 90.382812 C 109.121094 90.777344 109.058594 91.253906 109.078125 91.75 C 109.078125 92.050781 109.121094 92.308594 109.179688 92.585938 C 109.539062 94.53125 110.808594 95.785156 111.128906 96.082031 C 111.746094 97.710938 112.460938 100.3125 112.222656 103.449219 C 112.003906 106.269531 111.050781 108.277344 109.996094 110.621094 L 109.953125 110.699219 C 109.695312 111.277344 109.417969 111.871094 109.101562 112.527344 C 107.726562 115.425781 105.878906 118.980469 103.449219 123.035156 C 103.3125 123.253906 103.171875 123.492188 103.035156 123.710938 C 103.035156 123.730469 103.011719 123.730469 103.011719 123.75 L 103.035156 123.75 C 103.628906 124.167969 104.207031 124.523438 104.765625 124.863281 C 106.433594 125.835938 107.925781 126.46875 109.078125 126.867188 C 110.332031 127.304688 111.585938 127.640625 112.78125 127.878906 L 114.628906 128.199219 C 118.347656 128.734375 121.210938 128.496094 121.210938 128.476562 C 121.132812 128.457031 121.332031 127.820312 121.75 126.75 L 121.808594 126.570312 C 121.949219 126.210938 122.109375 125.796875 122.265625 125.359375 L 122.347656 125.160156 C 122.785156 124.046875 123.320312 122.695312 123.9375 121.207031 C 124.8125 119.65625 125.46875 118.226562 125.945312 116.898438 C 126.144531 116.339844 126.324219 115.804688 126.464844 115.289062 C 127.4375 111.910156 127.257812 109.289062 126.742188 107.324219 Z M 74.171875 73.238281 C 73.476562 72.84375 72.742188 72.226562 72.222656 71.332031 C 70.472656 68.292969 72.023438 62.953125 75.824219 61.421875 C 77.734375 60.648438 80.378906 60.785156 82.289062 62.394531 C 83.582031 63.488281 84.078125 64.859375 84.257812 65.515625 C 84.734375 65.652344 85.351562 65.929688 85.730469 66.507812 C 86.683594 68.035156 85.03125 70.339844 84.773438 70.699219 C 84.058594 71.691406 83.183594 72.285156 82.527344 72.644531 C 79.742188 72.863281 76.957031 73.0625 74.171875 73.242188 " fill-opacity="1" fill-rule="nonzero"/></g><path fill="#eca97c" d="M 80.417969 75.066406 C 79.464844 75.542969 78.769531 75.347656 78.230469 76.0625 C 77.695312 76.777344 77.773438 77.75 77.933594 78.464844 L 80.019531 79.359375 L 79.226562 83.648438 C 77.59375 83.785156 75.308594 83.785156 72.703125 83.171875 C 71.089844 82.792969 69.738281 82.257812 68.644531 81.742188 C 68.980469 80.351562 69.300781 78.941406 69.636719 77.550781 L 72.144531 77.550781 C 72.703125 76.734375 73.378906 75.605469 73.914062 74.132812 C 74.410156 72.722656 74.628906 71.472656 74.710938 70.519531 C 73.953125 69.863281 73.816406 68.871094 74.253906 68.296875 C 74.628906 67.757812 75.347656 67.738281 75.464844 67.738281 C 76.183594 67.996094 77.734375 68.433594 79.664062 68.097656 C 81.3125 67.796875 82.527344 67.042969 83.125 66.585938 C 83.382812 67.71875 83.382812 68.671875 83.324219 69.386719 C 83.28125 69.902344 82.925781 73.816406 80.417969 75.066406 " fill-opacity="1" fill-rule="nonzero"/><path fill="#efbf9e" d="M 109.4375 79.675781 C 106.890625 78.445312 106.535156 74.511719 106.496094 74.015625 C 106.433594 73.320312 106.433594 72.347656 106.691406 71.214844 C 107.289062 71.652344 108.484375 72.425781 110.195312 72.722656 C 112.125 73.0625 113.675781 72.625 114.390625 72.367188 C 114.488281 72.367188 115.207031 72.386719 115.605469 72.921875 C 116.019531 73.5 115.882812 74.492188 115.144531 75.148438 C 115.226562 76.101562 115.445312 77.371094 115.941406 78.761719 C 116.460938 80.230469 117.136719 81.382812 117.710938 82.179688 L 120.21875 82.179688 C 120.554688 83.570312 120.875 84.980469 121.210938 86.367188 C 119.839844 86.925781 118.109375 87.5 116.019531 87.859375 C 113.933594 88.234375 112.101562 88.296875 110.632812 88.253906 L 109.835938 83.964844 L 111.925781 83.070312 C 112.082031 82.355469 112.164062 81.382812 111.625 80.667969 C 111.089844 79.953125 110.371094 80.152344 109.4375 79.675781 " fill-opacity="1" fill-rule="nonzero"/><path fill="#00bf63" d="M 68.582031 123.828125 C 68.742188 123.769531 67.570312 120.75 65.859375 116.578125 C 65.621094 116.160156 65.402344 115.746094 65.203125 115.328125 C 64.84375 114.632812 64.546875 113.976562 64.289062 113.339844 C 62.296875 108.59375 62.417969 105.117188 63.074219 102.675781 C 63.871094 99.675781 65.242188 99.019531 65.757812 95.703125 C 65.777344 95.523438 65.820312 95.347656 65.839844 95.167969 C 65.878906 94.890625 65.898438 94.632812 65.917969 94.375 C 66.117188 91.414062 65.421875 89.425781 66.214844 85.574219 C 66.554688 83.964844 67.011719 82.695312 67.351562 81.839844 C 67.488281 80.390625 67.609375 78.960938 67.75 77.511719 L 69.636719 77.511719 C 69.300781 78.902344 68.980469 80.3125 68.644531 81.703125 C 69.917969 82.257812 71.667969 82.875 73.835938 83.191406 C 76.023438 83.527344 77.894531 83.46875 79.285156 83.308594 L 80.039062 79.296875 L 81.332031 79.753906 C 80.9375 81.265625 80.539062 82.773438 80.140625 84.285156 C 80.238281 84.480469 80.359375 84.742188 80.457031 85.058594 L 80.757812 87.0625 L 80.757812 87.085938 C 80.675781 89.507812 79.085938 91.054688 78.707031 91.414062 C 78.289062 92.527344 77.8125 94.09375 77.632812 95.980469 C 77.574219 96.695312 77.535156 97.433594 77.574219 98.226562 C 77.574219 98.40625 77.59375 98.605469 77.613281 98.78125 C 77.832031 101.621094 78.789062 103.648438 79.882812 106.03125 C 81.351562 109.390625 83.601562 113.878906 86.785156 119.121094 C 85.273438 120.175781 83.839844 120.949219 82.605469 121.484375 C 81.910156 121.800781 81.273438 122.042969 80.71875 122.238281 C 80.65625 122.257812 80.578125 122.28125 80.519531 122.300781 C 77.652344 123.292969 74.789062 123.691406 72.582031 123.828125 C 71.765625 123.886719 71.050781 123.90625 70.453125 123.90625 C 69.300781 123.90625 68.582031 123.847656 68.582031 123.828125 " fill-opacity="1" fill-rule="nonzero"/><path fill="#00bf63" d="M 123.957031 92.984375 C 123.757812 93.140625 123.5 93.261719 123.222656 93.261719 C 122.605469 93.261719 122.085938 92.746094 122.085938 92.128906 C 122.085938 91.511719 122.585938 90.996094 123.222656 90.996094 C 123.421875 90.996094 123.597656 91.035156 123.757812 91.136719 Z M 115.40625 94.15625 C 114.789062 94.15625 114.269531 94.652344 114.269531 95.285156 C 114.269531 95.921875 114.769531 96.417969 115.40625 96.417969 C 116.042969 96.417969 116.539062 95.921875 116.539062 95.285156 C 116.539062 94.652344 116.019531 94.15625 115.40625 94.15625 Z M 118.449219 87.34375 C 117.773438 87.539062 117.035156 87.699219 116.242188 87.839844 C 116.320312 88.394531 116.796875 88.8125 117.355469 88.8125 C 117.96875 88.8125 118.488281 88.316406 118.488281 87.679688 C 118.488281 87.5625 118.488281 87.441406 118.449219 87.34375 Z M 103.054688 123.75 L 103.054688 123.710938 C 103.113281 123.429688 103.253906 123.191406 103.472656 123.035156 C 103.667969 122.875 103.910156 122.796875 104.167969 122.796875 C 104.785156 122.796875 105.300781 123.292969 105.300781 123.929688 C 105.300781 124.324219 105.101562 124.683594 104.785156 124.882812 Z M 121.730469 126.75 C 121.609375 126.789062 121.472656 126.828125 121.332031 126.828125 C 120.714844 126.828125 120.199219 126.332031 120.199219 125.695312 C 120.199219 125.078125 120.695312 124.5625 121.332031 124.5625 C 121.769531 124.5625 122.148438 124.820312 122.328125 125.179688 Z M 112.78125 127.878906 C 112.71875 127.742188 112.679688 127.582031 112.679688 127.421875 C 112.679688 126.789062 113.175781 126.292969 113.8125 126.292969 C 114.429688 126.292969 114.949219 126.789062 114.949219 127.421875 C 114.949219 127.722656 114.828125 128 114.628906 128.199219 Z M 119.742188 118.804688 C 119.125 118.804688 118.605469 119.300781 118.605469 119.9375 C 118.605469 120.550781 119.105469 121.066406 119.742188 121.066406 C 120.359375 121.066406 120.875 120.570312 120.875 119.9375 C 120.875 119.300781 120.359375 118.804688 119.742188 118.804688 Z M 109.636719 119.9375 C 109.019531 119.9375 108.503906 120.433594 108.503906 121.066406 C 108.503906 121.683594 109 122.199219 109.636719 122.199219 C 110.253906 122.199219 110.769531 121.703125 110.769531 121.066406 C 110.75 120.433594 110.253906 119.9375 109.636719 119.9375 Z M 126.484375 115.308594 C 126.285156 114.96875 125.925781 114.75 125.507812 114.75 C 124.890625 114.75 124.375 115.25 124.375 115.882812 C 124.375 116.519531 124.890625 117.015625 125.507812 117.015625 C 125.667969 117.015625 125.828125 116.976562 125.964844 116.917969 Z M 115.105469 114.75 C 114.488281 114.75 113.972656 115.25 113.972656 115.882812 C 113.972656 116.5 114.46875 117.015625 115.105469 117.015625 C 115.722656 117.015625 116.242188 116.519531 116.242188 115.882812 C 116.21875 115.25 115.722656 114.75 115.105469 114.75 Z M 109.101562 112.546875 C 109.296875 112.765625 109.597656 112.90625 109.933594 112.90625 C 110.550781 112.90625 111.070312 112.386719 111.070312 111.773438 C 111.070312 111.15625 110.589844 110.660156 109.996094 110.640625 Z M 118.945312 98.644531 C 118.328125 98.644531 117.8125 99.140625 117.8125 99.777344 C 117.8125 100.410156 118.308594 100.90625 118.945312 100.90625 C 119.5625 100.90625 120.078125 100.410156 120.078125 99.777344 C 120.078125 99.140625 119.582031 98.644531 118.945312 98.644531 Z M 115.722656 104.742188 C 115.105469 104.742188 114.589844 105.238281 114.589844 105.875 C 114.589844 106.507812 115.085938 107.003906 115.722656 107.003906 C 116.339844 107.003906 116.855469 106.507812 116.855469 105.875 C 116.855469 105.238281 116.359375 104.742188 115.722656 104.742188 Z M 120.875 108.375 C 120.257812 108.375 119.742188 108.871094 119.742188 109.507812 C 119.742188 110.144531 120.238281 110.640625 120.875 110.640625 C 121.511719 110.640625 122.007812 110.144531 122.007812 109.507812 C 122.007812 108.871094 121.492188 108.375 120.875 108.375 Z M 124.832031 103.074219 C 124.695312 103.132812 124.535156 103.171875 124.355469 103.171875 C 123.738281 103.171875 123.222656 102.65625 123.222656 102.039062 C 123.222656 101.484375 123.621094 101.027344 124.136719 100.929688 Z M 110.589844 91.511719 C 110.589844 92.148438 110.074219 92.644531 109.457031 92.644531 C 109.359375 92.644531 109.257812 92.625 109.179688 92.605469 C 109.140625 92.347656 109.101562 92.070312 109.078125 91.769531 C 109.058594 91.273438 109.121094 90.796875 109.199219 90.402344 C 109.277344 90.382812 109.359375 90.359375 109.457031 90.359375 C 110.074219 90.382812 110.589844 90.878906 110.589844 91.511719 " fill-opacity="1" fill-rule="nonzero"/><path fill="#000000" d="M 114.808594 77.609375 C 114.648438 77.710938 114.609375 77.867188 114.511719 78.027344 C 114.390625 78.246094 114.25 78.464844 114.09375 78.664062 C 113.773438 79.039062 113.394531 79.277344 112.976562 79.535156 C 112.917969 79.574219 112.957031 79.675781 113.039062 79.65625 C 113.515625 79.574219 113.933594 79.238281 114.25 78.902344 C 114.511719 78.625 115.007812 78.105469 114.988281 77.710938 C 114.96875 77.609375 114.867188 77.550781 114.808594 77.609375 Z M 114.648438 72.683594 C 114.550781 72.664062 114.449219 72.824219 114.570312 72.863281 C 114.808594 72.980469 115.027344 73.101562 115.144531 73.300781 C 115.085938 73.339844 115.027344 73.398438 114.96875 73.4375 C 114.886719 73.519531 114.808594 73.578125 114.75 73.675781 C 114.707031 73.714844 114.789062 73.777344 114.828125 73.757812 C 114.90625 73.699219 115.007812 73.636719 115.085938 73.597656 C 115.125 73.558594 115.1875 73.539062 115.226562 73.519531 C 115.304688 73.835938 115.167969 74.074219 115.046875 74.371094 C 115.007812 74.492188 115.167969 74.550781 115.246094 74.492188 C 115.882812 73.976562 115.386719 72.824219 114.648438 72.683594 Z M 81.511719 120.628906 C 80.875 120.628906 80.378906 121.128906 80.378906 121.761719 C 80.378906 121.960938 80.4375 122.160156 80.539062 122.320312 L 82.625 121.503906 C 82.488281 120.988281 82.050781 120.628906 81.511719 120.628906 Z M 71.507812 122.378906 C 70.890625 122.378906 70.375 122.875 70.375 123.511719 C 70.375 123.648438 70.394531 123.789062 70.453125 123.929688 L 72.582031 123.847656 C 72.621094 123.75 72.640625 123.628906 72.640625 123.511719 C 72.640625 122.875 72.144531 122.378906 71.507812 122.378906 Z M 81.214844 115.367188 C 81.832031 115.367188 82.347656 114.871094 82.347656 114.234375 C 82.347656 113.601562 81.851562 113.101562 81.214844 113.101562 C 80.578125 113.101562 80.082031 113.601562 80.082031 114.234375 C 80.082031 114.871094 80.597656 115.367188 81.214844 115.367188 Z M 72.5625 114.234375 C 71.945312 114.234375 71.429688 114.730469 71.429688 115.367188 C 71.429688 115.984375 71.925781 116.5 72.5625 116.5 C 73.199219 116.5 73.695312 116.003906 73.695312 115.367188 C 73.695312 114.75 73.199219 114.234375 72.5625 114.234375 Z M 65.003906 113.101562 C 64.726562 113.101562 64.46875 113.203125 64.289062 113.363281 C 64.546875 113.996094 64.863281 114.652344 65.203125 115.347656 C 65.738281 115.25 66.136719 114.792969 66.136719 114.234375 C 66.136719 113.621094 65.640625 113.101562 65.003906 113.101562 Z M 80.4375 85.117188 C 80.320312 85.078125 80.199219 85.058594 80.082031 85.058594 C 79.464844 85.058594 78.945312 85.574219 78.945312 86.191406 C 78.945312 86.824219 79.445312 87.324219 80.082031 87.324219 C 80.320312 87.324219 80.539062 87.242188 80.71875 87.125 Z M 75.625 105.355469 C 75.007812 105.355469 74.492188 105.855469 74.492188 106.488281 C 74.492188 107.105469 74.988281 107.621094 75.625 107.621094 C 76.242188 107.621094 76.757812 107.125 76.757812 106.488281 C 76.757812 105.855469 76.261719 105.355469 75.625 105.355469 Z M 65.621094 103.570312 C 65.003906 103.570312 64.484375 104.066406 64.484375 104.703125 C 64.484375 105.335938 64.984375 105.832031 65.621094 105.832031 C 66.238281 105.832031 66.753906 105.335938 66.753906 104.703125 C 66.753906 104.066406 66.238281 103.570312 65.621094 103.570312 Z M 71.507812 101.882812 C 72.125 101.882812 72.640625 101.382812 72.640625 100.75 C 72.640625 100.113281 72.144531 99.617188 71.507812 99.617188 C 70.890625 99.617188 70.375 100.113281 70.375 100.75 C 70.375 101.382812 70.890625 101.882812 71.507812 101.882812 Z M 77.496094 96.023438 C 76.878906 96.023438 76.359375 96.519531 76.359375 97.152344 C 76.359375 97.769531 76.859375 98.285156 77.496094 98.285156 L 77.574219 98.285156 C 77.535156 97.492188 77.574219 96.738281 77.632812 96.042969 C 77.574219 96.023438 77.535156 96.023438 77.496094 96.023438 Z M 66.753906 94.035156 C 66.414062 94.035156 66.117188 94.175781 65.917969 94.394531 L 65.777344 95.722656 C 65.976562 96.0625 66.335938 96.300781 66.753906 96.300781 C 67.371094 96.300781 67.886719 95.804688 67.886719 95.167969 C 67.886719 94.550781 67.371094 94.035156 66.753906 94.035156 Z M 74.492188 91.910156 C 75.109375 91.910156 75.625 91.414062 75.625 90.777344 C 75.625 90.164062 75.128906 89.644531 74.492188 89.644531 C 73.875 89.644531 73.359375 90.144531 73.359375 90.777344 C 73.359375 91.394531 73.875 91.910156 74.492188 91.910156 Z M 78.828125 83.152344 C 77.175781 83.351562 75.605469 83.351562 73.953125 83.089844 C 72.402344 82.832031 71.070312 82.136719 69.578125 81.703125 C 69.359375 81.640625 69.257812 81.917969 69.4375 82.039062 C 70.671875 82.953125 72.5625 83.332031 74.054688 83.507812 C 75.644531 83.707031 77.316406 83.628906 78.867188 83.25 C 78.90625 83.269531 78.886719 83.152344 78.828125 83.152344 Z M 68.523438 86.6875 C 67.90625 86.6875 67.390625 87.183594 67.390625 87.820312 C 67.390625 88.453125 67.886719 88.949219 68.523438 88.949219 C 69.140625 88.949219 69.660156 88.453125 69.660156 87.820312 C 69.660156 87.183594 69.160156 86.6875 68.523438 86.6875 Z M 75.128906 72.546875 C 74.828125 73.378906 76.003906 74.152344 76.601562 74.492188 C 76.640625 74.511719 76.699219 74.453125 76.660156 74.410156 C 76.402344 74.152344 76.101562 73.957031 75.863281 73.675781 C 75.726562 73.519531 75.625 73.320312 75.566406 73.121094 C 75.507812 72.921875 75.507812 72.722656 75.425781 72.546875 C 75.386719 72.40625 75.1875 72.386719 75.128906 72.546875 Z M 75.226562 68.214844 C 75.308594 68.234375 75.308594 68.355469 75.226562 68.375 C 75.089844 68.414062 74.988281 68.472656 74.910156 68.550781 C 74.988281 68.59375 75.046875 68.691406 75.128906 68.75 C 75.226562 68.851562 75.367188 68.949219 75.464844 69.03125 C 75.527344 69.089844 75.445312 69.167969 75.386719 69.148438 C 75.246094 69.089844 75.128906 69.007812 74.988281 68.949219 C 74.910156 68.910156 74.828125 68.890625 74.769531 68.851562 C 74.710938 69.007812 74.691406 69.167969 74.769531 69.328125 C 74.808594 69.425781 75.046875 69.605469 74.910156 69.703125 C 74.847656 69.746094 74.789062 69.765625 74.730469 69.726562 C 74.09375 69.386719 74.511719 68.054688 75.226562 68.214844 " fill-opacity="1" fill-rule="nonzero"/></svg>